<?xml version="1.0" encoding="UTF-8"?>
<!-- Generator: Adobe Illustrator 24.0.1, SVG Export Plug-In . SVG Version: 6.00 Build 0)  -->
<svg version="1.1" id="Layer_1" xmlns="http://www.w3.org/2000/svg" xmlns:xlink="http://www.w3.org/1999/xlink" x="0px" y="0px" width="66.6809px" height="90px" viewBox="0 0 66.6809 90" style="enable-background:new 0 0 66.6809 90;" xml:space="preserve">
<style type="text/css">
	.st0{fill:url(#XMLID_192_);}
	.st1{fill:#9B9B9B;}
	.st2{fill:#131313;}
	.st3{fill:#5B5B5B;}
	.st4{fill:#CBCBCB;}
	.st5{fill:#BFBFBF;}
	.st6{opacity:0.51;fill:#656565;}
	.st7{fill:url(#SVGID_1_);}
	.st8{fill:#FFFFFF;}
</style>
<g>
	<linearGradient id="XMLID_192_" gradientUnits="userSpaceOnUse" x1="23.0525" y1="68.9992" x2="23.0525" y2="1.7503">
		<stop offset="0" style="stop-color:#575EA6"/>
		<stop offset="1" style="stop-color:#1E8DC9"/>
	</linearGradient>
	<path id="XMLID_185_" class="st0" d="M40.4112,53.3298c-0.1357-0.3162-0.3631-0.5845-0.6529-0.7701l-0.0444-0.0285l-3.477-5.1697   l0.6098-1.7861c0.1502,0.0098,0.3037,0.0111,0.46,0.0008c1.1429-0.0754,2.0735-0.7407,2.62-1.8734   c0.2013-0.4171,0.4136-0.8449,0.619-1.2586c0.2127-0.4284,0.4324-0.871,0.646-1.314c0.0079-0.0155,0.0156-0.0311,0.0231-0.0469   l0.0242-0.0511c0.1067-0.2223,0.1994-0.4183,0.2831-0.5986l0.007-0.0147c0.0068-0.0145,0.0135-0.0291,0.02-0.0437   c0.614-1.3287,1.041-2.4453,1.3433-3.5119c0.0622-0.2194,0.2234-0.5679,0.3794-0.9049c0.5425-1.1725,1.2854-2.7782,0.4753-4.3194   c-0.4598-0.8747-1.2843-1.4707-2.509-1.8093l0.1932-0.8106c0.0095-0.0401,0.0177-0.0806,0.0243-0.1213l0.0776-0.4754   c0.0091-0.0559,0.0154-0.1123,0.0189-0.1688c0.0209-0.3354,0.042-0.6708,0.0632-1.0064c0.0011-0.0176,0.0019-0.0352,0.0025-0.0529   l0.0123-0.3783l0.2009-1.3024c0.0367-0.0926,0.0662-0.1885,0.0879-0.2867c0.12-0.4481,0.2402-0.8965,0.3604-1.3449l0.0326-0.0717   c0.0743-0.1639,0.1215-0.3366,0.1418-0.5117c0.0901-0.2899,0.1011-0.5966,0.0353-0.8887c0.0014-0.0405,0.0027-0.081,0.004-0.1214   c0.0005-0.0166,0.0009-0.0331,0.0009-0.0497c0.0021-0.5122,0.015-1.0429,0.0275-1.5561c0.0302-1.2441,0.0615-2.5306-0.046-3.8282   c-0.136-1.6411-0.5117-3.6558-2.1626-5.0207c-0.1331-0.5534-0.362-1.2507-0.8341-1.8596c0.0949-0.2856,0.1148-0.5958,0.05-0.9   c-0.0024-0.0122-0.007-0.0477-0.0103-0.0737c-0.0311-0.2411-0.1134-0.8817-0.6951-1.3499   c-0.2081-0.1673-0.4226-0.3321-0.642-0.4933c-0.221-0.3533-0.5671-0.6212-0.9814-0.7408   c-0.0621-0.0179-0.1262-0.0369-0.1936-0.0573c-2.825-1.7711-5.8696-2.6598-8.222-3.2377   c-0.4176-0.1026-0.8278-0.1632-1.1897-0.2167c-0.8752-0.1293-1.3482-0.2146-1.6982-0.5965   c-0.3259-0.3556-0.786-0.5579-1.268-0.5579c-0.0045,0-0.0091,0-0.0135,0.0001l-1.6138,0.0127   c-0.5627,0.0044-1.0774,0.2824-1.3919,0.7282c-0.0899,0.0003-0.1797,0.0077-0.2687,0.022l-8.198,1.324   c-0.2361,0.0382-0.46,0.1248-0.6581,0.2527c-0.1186-0.0851-0.2505-0.1783-0.3954-0.2696   c-0.6662-0.4198-1.5325-0.3334-2.1029,0.2097L9.8699,4.1403c0,0-0.0006,0.0006-0.0009,0.0009   C9.8687,4.1416,9.8684,4.1419,9.8684,4.1419l-0.0252,0.024c-0.0031,0.0029-0.0059,0.006-0.009,0.0089   c-0.0029,0.0028-0.006,0.0053-0.009,0.0081L9.7766,4.2292l-0.0011,0.001l-0.016,0.0153l0.0001,0.0001   C9.1051,4.8834,9.2145,5.6468,9.2699,5.8848L9.1471,7.0103l-0.036,0.0403L9.0272,7.134C8.8992,7.1883,8.779,7.2576,8.6688,7.34   C8.2749,7.5071,7.9524,7.8177,7.773,8.2148L7.5807,8.3716c-0.2401,0.0822-0.462,0.2175-0.6476,0.3997   c-0.1753,0.172-0.3093,0.377-0.3967,0.6C6.4905,9.4255,6.4481,9.4822,6.4092,9.5412L6.3105,9.6503L6.0126,9.8862   c-0.0687,0.0544-0.1339,0.1147-0.1936,0.179c-0.0625,0.0674-0.1196,0.1396-0.1706,0.2161L5.5499,10.429   c-0.0991,0.1257-0.1813,0.2661-0.2428,0.4182c-0.0631,0.1449-0.1404,0.3021-0.222,0.4678   c-0.2378,0.4828-0.5072,1.0301-0.642,1.6934c-1.123,5.5295-0.4837,10.9607,0.1347,16.213   c0.0571,0.4844,0.1149,0.9753,0.1715,1.4684c-0.173-0.008-0.3394-0.0062-0.4967,0.0025c-0.5282,0.0294-1.0133,0.3002-1.3157,0.7341   l-0.6281,0.9018c-0.3344,0.4801-0.4018,1.0972-0.1791,1.6381c0.0119,0.0287,0.0244,0.057,0.0377,0.0848   c-0.0631,0.7295,0.14,1.3789,0.2767,1.8159c0.0353,0.113,0.0692,0.2212,0.0941,0.3146c0.2796,2.8063,1.4848,5.0767,2.6509,7.2734   c0.3607,0.6796,0.7337,1.3822,1.0733,2.0906c0.3614,0.7539,1.2127,1.1387,2.0174,0.9121l0.3226-0.0909   c0.0775,0.2659,0.1551,0.5321,0.2326,0.7985l0.3135,1.235c-0.0979,0.1324-0.1838,0.2867-0.2497,0.4665   c-0.4931,1.3469-0.885,2.694-1.1669,4.0107c-0.2154,0.3665-0.3671,0.8003-0.4959,1.2432c-0.0054,0.0185-0.0104,0.037-0.0152,0.0557   c-0.8287,3.2517-0.2343,6.2362,0.3405,9.1225c0.1746,0.8767,0.3395,1.7047,0.4664,2.5421   c0.0213,0.1403,0.0598,0.2774,0.1148,0.4081l0.096,0.2289c0.0022,0.0051,0.0043,0.0102,0.0065,0.0152   c0.0203,0.0599,0.044,0.1186,0.0708,0.1761l0.4602,0.9832c0.0531,0.1135,0.1184,0.2207,0.1948,0.32L9.124,68.172   c0.3057,0.397,0.7693,0.6409,1.2696,0.6681c0.9635,0.0523,1.9267,0.1044,2.8907,0.1566c0.0309,0.0017,0.0618,0.0025,0.0928,0.0025   c0.0807,0,0.1613-0.0057,0.2412-0.017l0.3332-0.0475l1.0999-0.1135c0.1272-0.0131,0.2526-0.0403,0.3738-0.0812l0.1115-0.0377   l0.2876-0.0533c0.0443-0.0082,0.0881-0.0181,0.1315-0.0297c0.2219-0.0121,0.4412-0.0672,0.645-0.1641l0.262-0.0704l0.442-0.0884   c0.0854-0.017,0.1693-0.0406,0.251-0.0704l2.5635-0.9333c0.2237-0.0435,0.4374-0.1312,0.6279-0.2584l2.3288,1.5412   c0.5782,0.3826,1.3044,0.3709,1.8587,0.026c0.3312,0.0335,0.6723-0.029,0.9795-0.1922l5.5554-2.9503   c0.1134-0.0445,0.2216-0.1005,0.323-0.1671c0.2695-0.1548,0.4917-0.3798,0.6432-0.6498l0.1009-0.1175   c0.067-0.0779,0.1267-0.1616,0.1787-0.2501l0.0119-0.0201c0.0327-0.0543,0.0628-0.111,0.0898-0.1698l0.0001-0.0003   c0.0014-0.003,0.0028-0.006,0.0041-0.009l0.1451-0.3203l0.4515,0.017c0.0859,0.0032,0.1722,0,0.2578-0.0096l0.2036-0.023   l0.2784-0.004l0.1156,0.0013c2.0195,0.104,4.1562-0.4717,4.7433-0.644l3.0419-0.4601c0.5268-0.0797,0.9869-0.3989,1.2459-0.8645   c0.259-0.4656,0.2877-1.0249,0.0776-1.5145L40.4112,53.3298z M42.4632,22.7557c0.0023,0.0518,0.0021,0.1038-0.0005,0.1558   c0.0001-0.0258,0.0002-0.0516,0.0003-0.0774c0.0001-0.0262-0.0005-0.0523-0.0016-0.0784L42.4632,22.7557z M42.4302,22.7546   c0.014,0.068,0.0239,0.1373,0.0293,0.2073h-0.0001c-0.0056-0.0695-0.0154-0.1387-0.0295-0.2073H42.4302z M42.161,21.8557   l-0.0002,0.0001c-0.0416-0.0606-0.0873-0.1188-0.1369-0.1741C42.0737,21.7372,42.1194,21.7954,42.161,21.8557z M20.727,67.0208   c-0.0353,0.0216-0.0723,0.0426-0.1111,0.0626C20.6538,67.0639,20.6909,67.043,20.727,67.0208L20.727,67.0208z"/>
	<g id="XMLID_10_">
		<g id="XMLID_19_">
			<path id="XMLID_184_" class="st1" d="M35.2485,49.2965c0.0054,0.0081,0.0109,0.0162,0.0163,0.0242     c-0.0119-0.024-0.0228-0.0484-0.0325-0.0734c-0.1382-0.1051-0.2764-0.2101-0.4147-0.3152     c-0.2719,0.7964-0.5438,1.5928-0.8158,2.3892c-0.053,0.1115-0.106,0.223-0.159,0.3345l-0.1287,0.3223     c-0.0245,0.5197-0.0491,1.0394-0.0736,1.559c-0.0034,0.0295-0.0083,0.0586-0.0147,0.0874     c0.3801-0.1995,0.7602-0.3989,1.174-0.6161c0.1265,0.5852-0.8859,0.9677-0.2017,1.6325     c-0.6199,0.3139-0.828-0.1606-1.0353-0.6368c-0.0034,0.469-0.0069,0.9379-0.0103,1.4068     c0.1213-0.0167,0.2426-0.0335,0.5237-0.0722c-0.2578,0.4266-0.4382,0.725-0.6186,1.0234l-0.0454,0.2742     c-0.0176,0.5239-0.0353,1.0478-0.0625,1.8571c-0.4551-0.4243-0.6588-0.6142-0.9004-0.8395     c-0.1143,0.0849-0.2392,0.1777-0.364,0.2705c-0.0488,0.0769-0.0976,0.1538-0.1464,0.2307     c-0.0254,0.0212-0.0508,0.0423-0.0763,0.0635c-0.282,0.342-0.564,0.6839-0.846,1.0259c0.3126,0.0401,0.6253,0.0802,0.9376,0.1203     c0.027,0.4653,0.0462,0.798,0.0655,1.13c0.0428-0.0434,0.0856-0.0867,0.1284-0.1301l0.047-0.0209     c0.053-0.0551,0.1059-0.1103,0.1589-0.1654c0.4981-0.6777,0.9962-1.3554,1.546-2.1034c0.1577,0.2571,0.2763,0.4504,0.3972,0.6428     c0.15-0.1563,0.2978-0.3116,0.4456-0.4669c0.0134-0.1101,0.0267-0.2202,0.0401-0.3304c0.0025-0.084,0.0049-0.168,0.0074-0.252     c0.0212-0.0528,0.0425-0.1056,0.0637-0.1583c0.0232-0.1182,0.0464-0.2363,0.0696-0.3545     c0.0162-0.0797,0.0324-0.1593,0.0487-0.239c0.023-0.0717,0.046-0.1434,0.0689-0.2152l0.007-0.2394     C34.9831,54.1742,35.8795,51.8665,35.2485,49.2965z"/>
			<path id="XMLID_183_" class="st2" d="M10.2545,7.0698c0.0697-0.6386,0.1394-1.2773,0.2724-2.4957     c-0.2358,0.2243-0.0681,0.0648,0.1229-0.1169c0.7572,0.477,1.4366,1.3042,2.3481,0.2716     c2.5535-0.4124,5.3056-0.8569,8.5763-1.3851c0.3929,0.0598,1.3565,0.2064,2.7732,0.422     c-0.6891-0.6234-0.9989-0.9037-1.3086-1.1839c0.5628-0.0044,1.1255-0.0089,1.6883-0.0133     c1.1051,1.2056,2.5686,1.0507,3.9185,1.3823c3.4736,0.8535,6.8536,2.0208,9.8042,4.3932     c0.068,0.0547,0.0572,0.2352,0.1051,0.4601c-0.3884-0.1051-0.7074-0.1914-1.1615-0.3144     c0.2624,0.5285,0.4614,0.9293,0.6605,1.3301c-0.5349-0.5408-1.0699-1.0817-1.6653-1.6836     c0.3392-0.259,0.5117-0.3907,0.9913-0.7569c-2.9048-0.8385-5.3545-2.3182-8.2143-2.3c-0.7444-0.9692-1.7274-0.6216-2.702-0.4504     c-0.091,0.2027-0.19,0.4231-0.3795,0.8452c-0.1675-0.323-0.2605-0.5022-0.3534-0.6814l-0.0046,0.0049     c0.3929-0.212,0.7857-0.424,1.2201-0.6584c-0.8094-0.3589-1.5164-0.6725-2.2474-0.9966     c-0.2697,0.272-0.5092,0.5136-0.7536,0.7524c-2.1819-0.278-4.2655,1.0815-6.4857,0.2768     c0.0033,0.4143,0.0051,0.6513,0.0079,1.0043c-1.9515-1.0898-3.6341,0.7406-5.4684,0.2801     c-0.2726,0.7066-0.6674,0.9246-1.0481,0.7761C10.6684,6.572,10.4615,6.8209,10.2545,7.0698z"/>
			<path id="XMLID_182_" class="st1" d="M20.526,66.7395c-3.2897,1.585-6.5194,2.6371-9.9784,2.1253     c-1.2627-0.1868-1.005-1.6473-1.3003-2.6141c-1.074-3.5164-1.0758-7.822-0.5152-11.2392     c-0.1243,0.0232-0.3614,0.6669-0.4722,1.048c-1.0094,3.9607,0.3028,7.6828,0.8796,11.4889     c0.0336,0.0801,0.0672,0.1603,0.1009,0.2404c0.0282,0.0388,0.0452,0.083,0.0511,0.1328c0.1605,0.3429,0.321,0.6859,0.4815,1.0288     c0.0533,0.0693,0.1066,0.1386,0.1601,0.2081c1.0077,0.0547,2.0153,0.1092,3.0237,0.1638     c0.1276-0.0181,0.2544-0.0362,0.3812-0.0544c0.3954-0.0408,0.7908-0.0817,1.1859-0.1224     c0.0789-0.0267,0.1581-0.0535,0.2373-0.0803c0.1431-0.0266,0.2862-0.0531,0.4288-0.0795     c0.1031-0.0311,0.2068-0.0624,0.3105-0.0938c0.0362-0.0031,0.0724-0.0062,0.108-0.0091c0.1878-0.0504,0.3761-0.101,0.5644-0.1516     l0.0017-0.0278l0.0121,0.0237c0.1754-0.0351,0.3509-0.0702,0.5259-0.1052c0.906-0.3299,1.8124-0.6599,2.7191-0.99     c0.0593-0.0263,0.1184-0.0526,0.1774-0.0788c0.0206-0.0529,0.0526-0.0645,0.0955-0.0348     c0.2407-0.1466,0.4819-0.2934,0.7271-0.4368c0.2267,0.0485,0.4492,0.0936,0.6718,0.1388     C20.8735,67.0289,20.6436,66.8374,20.526,66.7395z"/>
			<path id="XMLID_177_" d="M9.0185,8.2626c0.03-0.0682,0.0601-0.1365,0.0901-0.2047C9.1617,8.045,9.2149,8.0322,9.2682,8.0192     C9.3189,7.9875,9.3694,7.956,9.42,7.9245L9.4139,7.9368c0.1289-0.1282,0.2577-0.2564,0.3865-0.3845     c0.0445-0.0499,0.089-0.0997,0.1336-0.1496c0.0512-0.0506,0.1023-0.1013,0.1532-0.1524c0.0427-0.0483,0.0856-0.0961,0.1285-0.144     c0,0,0.0382-0.0359,0.0385-0.0362c0.2072-0.2492,0.4142-0.4981,0.6966-0.8378c0.3807,0.1484,0.7754-0.0695,1.0481-0.7761     c1.8343,0.4606,3.517-1.3698,5.4684-0.2801c-0.0028-0.353-0.0046-0.59-0.0079-1.0043c2.2202,0.8047,4.3038-0.5548,6.4857-0.2768     c0.2444-0.2388,0.4839-0.4803,0.7536-0.7524c0.7309,0.3241,1.438,0.6377,2.2474,0.9966     c-0.4344,0.2344-1.2017,0.6378-1.2155,0.6535c0.0929,0.1792,0.6419,0.0389,0.7329-0.1638     c0.9746-0.1712,1.9577-0.5188,2.702,0.4504c2.8598-0.0182,5.3095,1.4615,8.2143,2.3c-0.4796,0.3662-0.6521,0.4979-0.9913,0.7569     c0.5954,0.6019,1.1304,1.1427,1.6653,1.6836c0.0201,0.0278,0.0356,0.0586,0.0466,0.0923     c0.4618,0.7649,0.9236,1.5298,1.3854,2.2948c0.0676,0.0913,0.1353,0.1825,0.2028,0.2737     c0.2638,0.4354,0.5664,0.8474,0.7854,1.3101c1.7076,3.6077,0.7373,7.3976,0.5879,11.1317     c-0.0064,0.0516-0.0291,0.0912-0.0682,0.1186c-0.0917,0.5945-0.1835,1.189-0.2752,1.7835     c-0.0055,0.1683-0.0109,0.3366-0.0163,0.5046c-0.1852,1.0879-0.3704,2.1761-0.5556,3.2643     c-0.0031,0.1237-0.0061,0.2475-0.0092,0.3712c-0.1402,0.3031-0.2805,0.6062-0.4207,0.9093     c0.0169,0.2218,0.0338,0.4437,0.0453,0.5942c-0.4208,0.5727-0.8038,1.094-1.1798,1.6058     c0.8586,1.2979-1.1962,1.4067-0.704,2.3357c-0.3638,0.5961-0.6616,1.084-1.5079,2.4705c0.7845-4.7766-0.902-7.585-3.5408-10.0171     c-1.4497,2.1847-4.1879,1.6579-5.965,3.3922c-0.2002,0.0374-0.4006,0.0751-0.8597,0.1615     c0.5138-0.6458,0.8441-1.0609,1.0585-1.3304c-0.4363-1.8345-0.901-3.491-0.0744-6.215     c-1.0195,1.4517-1.4709,2.0942-1.7646,2.5125c-1.9389,0.1816-2.9395,1.7271-4.4287,2.5133     c0.1345-0.3996,0.2112-0.6274,0.3284-0.9758c-0.6168,0.1737-1.1322,0.3188-1.8222,0.513     c0.2048-0.4274,0.3311-0.6912,0.4574-0.9548c0.0214-0.034,0.0427-0.0681,0.0641-0.1021     c0.0623-0.0815,0.1245-0.1629,0.1868-0.2444c0.1075-0.4739,0.2149-0.9477,0.4942-2.1791     c-0.6138,0.8846-0.8198,1.1814-1.0258,1.4782c-0.0667,0.0508-0.1334,0.1017-0.2,0.1525     c-0.0719,0.0501-0.1438,0.1002-0.2156,0.1503c-0.031,0.0385-0.0676,0.0682-0.1098,0.0891     c-0.259,0.1472-0.5181,0.2943-0.8504,0.4831c-0.1425-0.1204-0.3166-0.2674-0.7426-0.6273c0.3496-0.524,0.6298-0.944,0.91-1.364     c0.0943,0.1199,0.1886,0.2398,0.2829,0.3596c0.1773-0.5387,0.3545-1.0774,0.614-1.8661     c-1.9306,0.6682-2.0697,2.8416-2.4569,3.1782c-1.0586,1.1002-1.361,1.4146-1.4563,1.5135     c-0.5045,0.2115-0.7661,0.3212-1.0277,0.4308c-0.0459,0.0639-0.0917,0.1278-0.1376,0.1917     c-0.1185,0.0811-0.237,0.1622-0.3555,0.2432c-0.259-0.2334-0.518-0.4668-0.6784-0.6114c0.1279-0.5728,0.202-0.9043,0.3663-1.6398     c-0.6141,0.5525-0.9495,0.8543-1.323,1.1904c-0.305-0.5262-0.5894-1.0169-0.9802-1.691     c-0.2896,0.2815-0.5543,0.5389-0.819,0.7962c-0.0816,0.0528-0.1632,0.1056-0.2451,0.1583l-0.0187-0.044     c-1.9408,1.2558-2.1771,3.6436-2.6211,5.7329c-0.6152-0.4171-0.9773-0.6626-1.3395-0.9081     c-0.0411-0.007-0.0722-0.0309-0.0923-0.0709c-0.0128-1.7557-0.0267-3.512-0.0424-5.5053     c0.3645,0.2169,0.6798,0.4045,1.1926,0.7096c-0.1735-0.5831-0.2951-0.9917-0.4403-1.4799     c0.3642,0.1027,0.6231,0.1757,0.7809,0.2202c0.1706-0.3579,0.3103-0.6511,0.4799-1.0071     c-0.061-0.1148-0.1678-0.3157-0.2808-0.5282c-0.1788,0.1272-0.3473,0.2471-0.4839,0.3443     c-0.3241-0.6093-0.6237-1.1726-0.9653-1.8148c0.1254-0.1196,0.2994-0.2855,0.4989-0.4758     c-0.1892-0.12-0.3672-0.2329-0.737-0.4675c0.2122-1.5609,0.4327-3.1834,0.6511-4.7903c-0.236-0.1394-0.4143-0.2448-0.5847-0.3455     c-0.0239-0.2714-0.0443-0.5027-0.0718-0.8139c-0.2016-0.0235-0.3911-0.0455-0.6418-0.0747     c-0.0174,0.308-0.0305,0.5383-0.0436,0.7686l0.0076-0.0054c-0.518-2.1912-0.0987-4.1845,0.997-6.2172     c-0.0226-0.163-0.0691-0.499-0.1156-0.835l-0.0014,0.0118c0.0626-0.0936,0.125-0.1873,0.1875-0.281l0.0008-0.0009     c0.143-0.1132,0.286-0.2264,0.429-0.3397c0.0648-0.0717,0.1296-0.1434,0.1945-0.2151c0.0539-0.0596,0.1078-0.1193,0.1616-0.179     c0.0031-0.0297,0.0156-0.0531,0.0373-0.0702c0.0786-0.0819,0.1572-0.1637,0.2357-0.2455     c0.0154-0.0315,0.0372-0.0556,0.0653-0.0724c0.0453-0.051,0.0906-0.1018,0.136-0.1526l0.0004,0.0024     c0.0891-0.0733,0.1782-0.1465,0.2674-0.2198C8.026,9.0937,8.1555,8.988,8.2851,8.8824C8.3959,8.7799,8.5066,8.6774,8.6174,8.575     l0.043-0.0316C8.7798,8.4498,8.8991,8.3562,9.0185,8.2626z M9.7433,16.6953c-0.5997,3.0506-2.2694,5.4701-1.6365,8.717     c-0.0134-0.0034,0.2104,0.0531,0.4106,0.1037c0.2159-0.4382,0.3882-0.7881,0.6272-1.2733     c0.2621,0.4276,0.4381,0.7146,0.7081,1.1552c1.8944-2.4478,0.9053-5.0585,0.5227-7.7207     C10.2918,17.5472,10.1281,17.293,9.7433,16.6953z M17.187,23.0164c-0.4554,0.2185-0.7144,0.3428-1.0709,0.5138     c-0.0618-0.7244-0.112-1.3119-0.1721-2.0157c-0.8423,0.6512-1.6148,1.2485-2.6459,2.0456     c-0.0868,0.5179-0.2287,1.3652-0.3794,2.2649c0.3407,0.1132,0.5649,0.1876,0.7737,0.2569     c0.1393-0.3001,0.2385-0.5139,0.5135-1.1063c-0.0703,0.7677-0.1021,1.114-0.1519,1.6585     c0.3399,0.2622,0.7496,0.5782,1.2243,0.9444C15.9812,26.0019,17.6043,25.1385,17.187,23.0164z M20.691,26.2743     c0.036,0.0768,0.0719,0.1536,0.1079,0.2304c0.2569-0.1797,0.5138-0.3593,0.7707-0.539c-0.0475-0.0814-0.095-0.1627-0.1424-0.2441     C21.1817,25.9058,20.9364,26.0901,20.691,26.2743z"/>
			<path id="XMLID_171_" class="st3" d="M26.864,32.2555c1.7772-1.7347,4.5155-1.2078,5.9651-3.3925     c2.6388,2.4321,4.3253,5.2406,3.5408,10.0171c0.8463-1.3865,1.1441-1.8744,1.5079-2.4705     c-0.4922-0.929,1.5626-1.0378,0.704-2.3357c0.376-0.5118,0.759-1.033,1.1798-1.6058c-0.0115-0.1505-0.0284-0.3723-0.0453-0.5947     c0.3356-0.0364,0.6713-0.0722,1.0069-0.108c0.0872-0.0091,0.1743-0.0181,0.2615-0.0272     c4.0963,0.7009,1.6117,3.5315,1.1179,5.2735c-0.6816,2.4048-1.9096,4.6214-2.9918,6.864     c-0.6527,1.3527-1.7518,0.9668-2.7779,0.6171c0.1249-0.0706,0.2501-0.1416,0.5749-0.3257     c-0.4911-0.0392-0.7562-0.0603-1.1008-0.0878c-1.1448,5.3522-4.1357,9.6521-5.9675,14.5709     c-0.2058,0.5527-1.5177,0.9558-0.5799,1.9755c-1.7364,2.5318-3.4729,5.0635-5.146,7.503     c-1.0903-0.9843-2.4531-2.2146-3.8159-3.4449c0.1402-0.0011,0.2803-0.0022-0.4385,0.0034c0.663-0.2056,0.511-0.1585,0.359-0.1113     c-0.1318-0.1272-0.2637-0.2544-0.3958-0.3818c0.5037-1.3176-1.0539-1.3065-1.1324-2.2486     c1.9129,1.1327,2.7379,4.0061,5.2902,4.39c0.0613-0.4931,0.101-0.8123,0.157-1.2623c0.0894-0.0655,0.2994-0.2194,0.5217-0.3823     c-0.147-0.3094-0.279-0.5872-0.4481-0.9432c0.3531-0.0837,0.5919-0.1403,0.8964-0.2124     c0.0488-0.5947,0.0974-1.1865,0.1466-1.7863c-0.221-0.1093-0.3859-0.191-0.2883-0.1427     c-0.3144-0.613-0.5049-0.9846-0.7134-1.3912c0.0365-0.2672,0.08-0.5861,0.0972-0.7125     c-2.1993-0.6063-4.3703-0.6018-6.3788-1.9509c-1.1222-0.7537-2.2897-1.8747-3.8102-1.6542     c-0.6966-1.1188-1.3932-2.2375-2.2055-3.542c-0.1306,0.4651-0.1822,0.6487-0.2338,0.8323     c-0.3137-0.7875-0.6273-1.5749-0.941-2.3624c-0.0368-0.0999-0.0735-0.1997-0.1102-0.2996     c-0.0065-0.0503-0.029-0.0884-0.0675-0.1144c-0.2204-0.8683-0.4408-1.7366-0.6611-2.6039     c0.1704,0.0208,0.3406,0.0405,0.4648,0.0549c0.4842,0.8503,0.9207,1.7868,1.4996,2.5919c0.781,1.086,1.6715,1.3795,2.8253-0.2158     c4.0412,1.2125,8.3692,1.9611,12.2939-1.3413c-0.1485-0.4248-0.267-0.7637-0.3921-1.1214     c-0.2693-0.1508-0.537-0.3006-0.8848-0.4953c-2.0717,1.198-4.2097,2.1767-7.1488-0.1223     c4.4133,2.1914,4.3235-0.9972,4.4412-3.9476c1.5877,1.4183,2.8958,2.4604,4.0696,3.6698     c1.2489,1.2867,2.3923,2.6363,4.1938,1.1706c1.1276-2.0305,2.2323-4.1001,1.5893-6.7534     c-0.5299,0.0042-0.8894,0.007-1.3385,0.0105c-0.0537-0.5184-0.102-0.9855-0.1534-1.4817     c-0.193,0.0205-0.4429,0.0469-0.448,0.0475c-0.4223-0.3646-0.6994-0.6039-0.9768-0.8431     c-0.1189-0.1107-0.2376-0.2215-0.3563-0.3323c1.1042,0.1126,2.2084,0.2252,3.9171,0.3994     c-2.2028-1.8706-3.9359-2.0156-6.1304-0.8349c0.7568,0.1833,1.1883,0.2879,1.6197,0.3924     c-0.3624,0.1121-0.7248,0.2242-1.0872,0.3363c-0.1406,0.1407-0.2813,0.2814-0.4219,0.4221     c-0.1291,0.0691-0.2583,0.1382-0.3874,0.2074c-0.1962-0.1238-0.3923-0.2476-0.6353-0.401     c-0.1997,0.2145-0.3736,0.4014-0.5256,0.5647c0.092,0.3761,0.1624,0.6639,0.253,1.0345     c-0.4323,0.0034-0.7699,0.0061-1.0229,0.0081c-0.251,0.3862-0.477,0.7339-0.7076,1.0888     c-2.7431-1.5792-0.424-3.0506-0.0711-4.7134c2.2847-0.7003,4.6779-1.4339,7.1482-2.191     c-0.2252-0.1762-0.3802-0.2975-0.5591-0.4375c0.5057-1.156-0.7898-1.4993-0.7437-2.5375     c-1.1682,0.1593-2.3399-0.4065-3.3641,0.5258C26.8891,32.4602,26.8765,32.3578,26.864,32.2555z M37.1306,40.8799     c-0.223,0.097-0.446,0.1941-0.0102,0.0045c-0.2955,0.4092-0.1447,0.2004,0.0061-0.0085c0.0365-0.049,0.0729-0.0979,0.0065-0.0088     C37.1557,40.748,37.1431,40.8139,37.1306,40.8799z M13.7399,53.0679c3.4182,4.7878,7.1005,5.61,11.3386,3.1813     c-0.0208-0.1754-0.0473-0.3986-0.0625-0.5267c0.4599-0.602,0.8673-1.1355,1.2504-1.637c0.4456,0.0878,0.8502,0.1675,1.259,0.2481     c0.5514-0.5489,1.0656-1.0608,1.671-1.6634c-0.4777-0.1458-0.8535-0.2605-1.0397-0.3173c-0.0708-0.7003-0.1254-1.24-0.2108-2.084     c-0.7271,0.412-1.2655,0.717-1.7779,1.0073c0.09,0.4413,0.1367,0.6701,0.1656,0.8113c-0.3539,0.8783-0.6759,1.6776-1.0059,2.4965     c-1.8738-0.3895-4.0368,0.6688-5.7911-1.8855c1.8489,0.9555,3.1879,0.4741,4.4243-0.7293     c-3.1005,1.6428-6.6058-2.6234-9.6825,1.1189c-0.1434-0.4415-0.285-0.8778-0.4267-1.314c-0.1457,0.16-0.2913,0.3201-0.437,0.4801     C13.6278,52.7875,13.841,53.3209,13.7399,53.0679z M40.1062,34.3601c0.2137,1.2204,0.3984,2.2749,0.6469,3.6935     c0.433-1.5707,0.498-2.7404-0.1429-3.9686C40.381,34.2101,40.2071,34.305,40.1062,34.3601z M30.9872,39.5843     c0.0507-0.0935,0.1014-0.1871,0.1521-0.2806c-0.1853-0.0833-0.3706-0.1667-0.5559-0.2501     c-0.0311,0.0721-0.0621,0.1442-0.0932,0.2162C30.6559,39.3747,30.8216,39.4795,30.9872,39.5843z"/>
			<path id="XMLID_167_" class="st4" d="M19.8228,64.1944c0.1318,0.1272,0.2637,0.2544,0.3955,0.3816     c0.0256,0.0368,0.0521,0.0728,0.0795,0.1079c1.3628,1.2303,2.7256,2.4606,3.8159,3.4449     c1.6731-2.4395,3.4096-4.9712,5.1461-7.503c0.0442-0.0122,0.086-0.0311,0.1254-0.0568c0.0266-0.0249,0.0533-0.0498,0.0799-0.0747     c0.3536-0.2696,0.7071-0.5392,1.0607-0.8087c0.0328-0.0328,0.0656-0.0657,0.0984-0.0985     c0.1308-0.1141,0.2616-0.2281,0.3925-0.3422c0.3126,0.0401,0.6253,0.0802,0.9376,0.1203     c0.0271,0.4679,0.0464,0.8017,0.0658,1.1356c-0.0217,0.0271-0.0434,0.0543-0.0603,0.0856     c0.0223-0.0266,0.0396-0.0574,0.057-0.0882c0.0438-0.0444,0.0875-0.0887,0.13-0.1321c0.0152-0.0066,0.0318-0.0142,0.0484-0.0218     c0.053-0.0551,0.1059-0.1103,0.1586-0.164c0.444,0.0427,0.8884,0.0841,1.3181,0.1241c0.0447,0.3277,0.0761,0.5578,0.1167,0.8559     c0.2011,0.0556,0.405,0.1119,0.6365,0.1758c0.1116-1.0829,0.2147-2.0838,0.3178-3.0847     c0.0134-0.1101,0.0267-0.2202,0.0405-0.3298c0.0026-0.0838,0.0048-0.1682,0.007-0.2525     c0.0212-0.0528,0.0425-0.1056,0.0639-0.1572c0.0232-0.1178,0.0463-0.2367,0.0695-0.3556     c0.0162-0.0797,0.0324-0.1593,0.0489-0.2383c0.0231-0.0715,0.0459-0.1437,0.0687-0.2158     c0.0023-0.0798,0.0047-0.1596,0.0074-0.2389c0.2736-0.914,0.5467-1.8284,0.649-2.1708c0.4894-0.6781,0.6915-0.9581,0.8937-1.2382     c-0.3215,0.7594,0.3759,0.7695,0.5589,1.1021c-0.0681,0.2161-0.1358,0.4328-0.1175,0.3743     c0.3262,0.723,0.552,1.2235,0.9571,2.1212c-0.5279-0.4118-0.712-0.5553-1.064-0.8298c0.1832,1.205,0.3348,2.2028,0.514,3.3815     c-0.032,0.8671-1.4958,1.3169-0.9344,2.665c0.1994-0.158,0.3954-0.319,0.5914-0.4799c-0.1914,0.445-0.3828,0.89-0.5657,1.3154     c-0.1986-0.0107-0.35-0.0189-1.1221-0.0605c0.9073,0.414,1.2473,0.5691,1.5873,0.7242     c-0.6103,0.1511-1.2206,0.3023-1.8309,0.4534c-0.1572-0.0017-0.3144-0.0033-0.4721-0.0051     c-0.0396-0.0917-0.0789-0.1832-0.1998-0.4654c-0.1233,0.2879-0.1625,0.3795-0.2018,0.4711     c-0.1002,0.0113-0.2004,0.0227-0.3012,0.034c-0.0457-0.0592-0.0909-0.1184-0.1362-0.1775     c-0.0564-0.0211-0.1128-0.0421-0.1691-0.0632c-0.4947-0.2427-0.9893-0.4829-1.3933,0.1766l0.0275-0.0205     c-0.1703,0.1258-0.3404,0.2515-0.5105,0.3772l-0.0294-0.0092l0.0149,0.0324c-0.0451,0.3523-0.0902,0.7047-0.1353,1.057     l-0.0234,0.0397c-0.0832,0.0968-0.1663,0.1936-0.2494,0.2903c-0.0013,0.0346-0.0172,0.0522-0.0479,0.0529     c-0.0254,0.0292-0.0506,0.0583-0.0759,0.0875c-0.0118,0.0349-0.0341,0.0508-0.067,0.0475     c-1.9812,1.0521-3.9623,2.1042-5.9673,3.169c-0.4286-0.3633-0.7995-0.2155-1.1321,0.2625     c-0.9592-0.6348-1.8864-1.2485-2.8137-1.8621l0.0127,0.0058c-0.0637-0.0345-0.1274-0.0689-0.1911-0.1033l-0.0008,0.0022     c-0.2299-0.1914-0.4598-0.3829-0.5774-0.4808c-3.2897,1.585-6.5194,2.6371-9.9784,2.1253     c-1.2627-0.1868-1.005-1.6473-1.3003-2.6141c-1.6198-5.3034-1.1485-10.4849,0.7142-15.5716     c0.0592-0.1617,0.4206-0.1808,0.6411-0.267c0.0384,0.0254,0.0609,0.0635,0.067,0.1134c0.0366,0.0997,0.0736,0.1999,0.1106,0.3     c0.3137,0.7875,0.6273,1.5749,0.9412,2.3628c0.0657,0.1066,0.1312,0.213,0.1967,0.3193c0.264,0.553,0.528,1.1061,0.792,1.6591     c0.0926,0.1624,0.1852,0.3247,0.2779,0.4871l0.0037-0.0119c0.0452,0.0517,0.0905,0.1034,0.1357,0.155l-0.0076,0.0044     c0.0455,0.0998,0.0909,0.1996,0.1364,0.2994c0.0342,0.0414,0.0684,0.0827,0.1026,0.1241     c0.1596,0.1733,0.3193,0.3466,0.4789,0.5199l-0.0061,0.0064c0.043,0.0898,0.086,0.1796,0.1289,0.2694     c0.0692,0.1079,0.1384,0.2157,0.2076,0.3236c0.0737,0.1053,0.1474,0.2107,0.2211,0.316     c0.8061,1.0008,1.6121,2.0015,2.4182,3.0022c0.0721,0.0962,0.1443,0.1924,0.2164,0.2885     c0.0248,0.0537,0.0497,0.1073,0.0745,0.1609c0.0763,0.1108,0.1526,0.2216,0.2289,0.3324l-0.0017,0.0291l0.0228-0.0169     c0.068,0.0707,0.1359,0.1413,0.2039,0.212l-0.0135-0.0151c0.0697,0.0831,0.1394,0.1661,0.2091,0.2492l-0.0036-0.0027     c0.063,0.0867,0.1261,0.1734,0.1891,0.2601c0.0789,0.0972,0.1577,0.1945,0.2366,0.2917     c0.0634,0.0608,0.1269,0.1216,0.1903,0.1824c0.1201,0.0792,0.2402,0.1584,0.3603,0.2377c0.0377,0.0493,0.0754,0.0987,0.113,0.148     c0.0235,0.0324,0.0471,0.0649,0.0706,0.0973c0.1312,0.1771,0.2625,0.3541,0.3937,0.5312     c0.0234,0.0364,0.0468,0.0728,0.0702,0.1093c0.0405,0.0451,0.0811,0.0902,0.1216,0.1354l0.0179,0.0625l0.0587-0.0038     c0.02,0.0197,0.0406,0.0384,0.0619,0.0563l0.0031-0.0012C19.6951,64.0691,19.7589,64.1317,19.8228,64.1944z M33.7814,62.2571     L33.75,62.2257l0.0275,0.0358c0.111,0.2469,0.2221,0.4938,0.4435,0.9862c0.147-0.5496,0.2062-0.7707,0.2653-0.9918l0.027-0.0362     l-0.0309,0.0319C34.2488,62.2534,34.0151,62.2552,33.7814,62.2571z M36.0921,61.7754c0.0479-0.0635,0.0281-0.0372,0.0121-0.004     C36.1313,61.7623,36.1584,61.7533,36.0921,61.7754z"/>
			<path id="XMLID_164_" class="st5" d="M37.1508,54.1566c-0.1836-0.3333-0.881-0.3433-0.5595-1.1027     c-0.2022,0.2801-0.4043,0.5602-0.8937,1.2382c-0.1023,0.3424-0.3754,1.2569-0.649,2.1708     c-0.0656-2.2888,0.8308-4.5965,0.1998-7.1664c1.3215,1.9647,2.6429,3.9295,3.9643,5.8941l0.0091,0.0156     c0.9728,2.2921,1.9457,4.5843,3.096,7.2945c-1.2777,0.0751-2.1528,0.1266-3.028,0.1782     c0.0397-0.0999,0.0795-0.1999,0.1193-0.2999c0.1083-0.0138,0.2166-0.0276-0.0313,0.004     c0.2259-0.1183,0.1251-0.0655,0.0243-0.0127c-0.0408,0.1049-0.0816,0.2098-0.1223,0.3147     c-0.7611,0.2274-1.5222,0.4549-2.2834,0.6823c-0.34-0.1551-0.6799-0.3102-1.5873-0.7242     c0.7721,0.0416,0.9235,0.0498,1.1221,0.0605c0.183-0.4254,0.3743-0.8704,0.565-1.3147c0.0874-0.0399,0.1755-0.0805,0.2636-0.1212     c0.3473,0.4374,0.6947,0.8749,1.1887,1.4971c-0.1178-1.213-0.205-2.1114-0.2922-3.0098c0.067-0.2722,0.1339-0.5444,0.1556-0.6327     c-0.1365-0.7125-0.2403-1.2541-0.3297-1.7208c0.3855-0.1845,0.6739-0.3225,1.1558-0.553     C38.455,55.8387,37.8029,54.9977,37.1508,54.1566z M40.8649,62.0584c-0.0244-0.0819-0.0489-0.1637-0.0733-0.2456     c-0.1814,0.093-0.3628,0.1861-0.5442,0.2791c0.035,0.0832,0.0699,0.1665,0.1049,0.2498     C40.5231,62.2472,40.694,62.1528,40.8649,62.0584z"/>
			<path id="XMLID_163_" d="M31.0167,59.2449c-0.1308,0.1141-0.2616,0.2281-0.3922,0.3421     c-0.0327,0.0328-0.0657,0.0657-0.0986,0.0986c-0.3536,0.2696-0.7071,0.5392-1.0602,0.808     c-0.0338-0.017-0.0681-0.0334-0.106-0.0462c0.0061,0.0428,0.0158,0.0822,0.0255,0.1216     c-0.0394,0.0257-0.0812,0.0446-0.1254,0.0568c-0.9378-1.0197,0.374-1.4228,0.5799-1.9755     c1.8319-4.9188,4.8227-9.2187,5.9675-14.5709c0.3446,0.0275,0.6097,0.0486,1.1008,0.0878     c-0.3249,0.1841-0.45,0.2551-0.5749,0.3257c-0.7769,2.276-1.5541,4.5522-2.3311,6.8278     c-0.0529,0.1113-0.1061,0.2233-0.1592,0.3352c-0.0429,0.1075-0.0858,0.2149-0.1282,0.3215     c-0.0244,0.5194-0.0492,1.0396-0.0741,1.5598c-0.0034,0.0295-0.0083,0.0586-0.0126,0.0866     c-0.0203,0.1263-0.0426,0.2533-0.065,0.3804c-0.0034,0.4689-0.0069,0.9379-0.01,1.4058     c-0.0316,0.3167-0.0634,0.6345-0.0952,0.9523c-0.0151,0.0914-0.0303,0.1828-0.0444,0.2742     c-0.4419,0.4294-0.8849,0.8587-1.3279,1.2881c-0.0488,0.0769-0.0976,0.1538-0.146,0.2304     c0.0004-0.0003-0.0636-0.0026-0.0636-0.0026l-0.0131,0.0665C31.5807,58.5609,31.2987,58.9029,31.0167,59.2449z"/>
			<path id="XMLID_162_" class="st2" d="M41.493,23.3128c-0.144,0.5369-0.2879,1.0738-0.4315,1.6102     c0.1497-3.7346,1.12-7.5246-0.5876-11.1323c-0.219-0.4627-0.5216-0.8747-0.7854-1.3101c1.4212,0.9571,1.7807,2.6057,1.916,4.2382     c0.15,1.8104,0.0209,3.6498,0.0132,5.4767c-0.0054,0.1641-0.0108,0.3281-0.016,0.492l-0.0297,0.0494l0.0247,0.0531l-0.011,0.0313     c-0.0002,0.0725-0.0007,0.145-0.0011,0.2175l0.0031,0.0659C41.5562,23.1741,41.5246,23.2434,41.493,23.3128z"/>
			<path id="XMLID_161_" class="st5" d="M34.7428,58.2512c-0.1031,1.0009-0.2062,2.0018-0.3178,3.0847     c-0.2315-0.0639-0.4354-0.1203-0.6365-0.1758c-0.0406-0.2981-0.072-0.5282-0.1167-0.8559     c-0.4297-0.04-0.874-0.0813-1.3181-0.1241c0.4984-0.6791,0.9965-1.3568,1.5463-2.1048c0.1577,0.2571,0.2763,0.4504,0.3972,0.6428     C34.4472,58.5619,34.595,58.4066,34.7428,58.2512z"/>
			<path id="XMLID_160_" class="st2" d="M32.0854,57.9247c0.443-0.4294,0.886-0.8587,1.3279-1.2881     c-0.0187,0.5239-0.0363,1.0478-0.0635,1.8571c-0.4551-0.4243-0.6588-0.6142-0.9004-0.8395     C32.3351,57.7391,32.2102,57.8319,32.0854,57.9247z"/>
			<path id="XMLID_159_" class="st2" d="M33.5629,54.0043c0.0223-0.1271,0.0447-0.2541,0.065-0.3804     c0.3781-0.1987,0.7582-0.3981,1.172-0.6153c0.1265,0.5852-0.8859,0.9677-0.2017,1.6325     C33.9782,54.955,33.7702,54.4804,33.5629,54.0043z"/>
			<path id="XMLID_158_" class="st2" d="M39.4857,12.207c-0.4618-0.765-0.9235-1.53-1.3854-2.2948     C39.0416,10.3063,39.2927,11.2342,39.4857,12.207z"/>
			<path id="XMLID_157_" class="st2" d="M33.4577,56.3624c0.0318-0.3178,0.0636-0.6356,0.0952-0.9523     c0.121-0.0157,0.2423-0.0324,0.5235-0.0712C33.8185,55.7655,33.6381,56.0639,33.4577,56.3624z"/>
			<path id="XMLID_156_" class="st2" d="M33.6405,53.5373c0.0248-0.5202,0.0497-1.0404,0.0741-1.5598     C33.6896,52.4979,33.6651,53.0176,33.6405,53.5373z"/>
			<path id="XMLID_155_" class="st2" d="M33.8428,51.6559c0.0531-0.112,0.1063-0.224,0.1592-0.3352     C33.9488,51.4329,33.8958,51.5444,33.8428,51.6559z"/>
			<path id="XMLID_154_" class="st5" d="M34.9236,57.156c-0.0231,0.1189-0.0462,0.2378-0.0695,0.3556     C34.8772,57.3924,34.9004,57.2742,34.9236,57.156z"/>
			<path id="XMLID_153_" class="st5" d="M32.1951,60.3442c-0.0166,0.0076-0.0331,0.0152-0.0484,0.0218     C32.1481,60.365,32.1951,60.3442,32.1951,60.3442z"/>
			<path id="XMLID_152_" class="st5" d="M32.0167,60.4981c-0.0174,0.0308-0.0347,0.0616-0.057,0.0882     c0.0168-0.0313,0.0386-0.0584,0.0603-0.0856L32.0167,60.4981z"/>
			<path id="XMLID_151_" class="st2" d="M31.8627,58.2189l0.0131-0.0665c0,0,0.0639,0.0023,0.0636,0.0026     C31.9136,58.1766,31.8881,58.1978,31.8627,58.2189z"/>
			<path id="XMLID_150_" class="st5" d="M34.7903,57.6689c-0.0022,0.0844-0.0043,0.1687-0.007,0.2525     C34.7854,57.8369,34.7878,57.7529,34.7903,57.6689z"/>
			<path id="XMLID_149_" class="st5" d="M35.0412,56.7019c-0.0228,0.0722-0.0457,0.1443-0.0687,0.2158     C34.9953,56.8453,35.0183,56.7736,35.0412,56.7019z"/>
			<path id="XMLID_148_" class="st1" d="M36.9964,63.3673c0.7611-0.2275,1.5222-0.4549,2.2832-0.6822l0.0104-0.0063     c0.875-0.0515,1.7501-0.1029,3.0278-0.178c-1.1503-2.7102-2.1231-5.0024-3.096-7.2945c0.121,0.0774,0.242,0.1548,0.363,0.2323     c0.9863,2.2989,1.9727,4.5977,3.108,7.2438c-2.7857,0.4213-5.1563,0.7798-7.5272,1.1383     C35.7757,63.6696,36.386,63.5184,36.9964,63.3673z"/>
			<path id="XMLID_147_" class="st1" d="M33.8544,63.6778c0.0452,0.0592,0.0904,0.1183,0.1362,0.1775     c-0.5657-0.0215-1.132-0.0429-1.6984-0.0642c0.4039-0.6594,0.8984-0.4191,1.3924-0.1772     C33.7408,63.6347,33.7976,63.6562,33.8544,63.6778z"/>
			<path id="XMLID_146_" class="st1" d="M31.809,64.1479c0.1701-0.1257,0.3402-0.2514,0.5105-0.3772     c-0.2199,0.4856-0.44,0.9714-0.6601,1.4573c0.045-0.3522,0.0901-0.7046,0.1347-1.0566     C31.7934,64.1718,31.809,64.1479,31.809,64.1479z"/>
			<path id="XMLID_145_" class="st5" d="M34.2918,63.8213c0.0392-0.0916,0.0785-0.1832,0.2018-0.4711     c0.1209,0.2822,0.1602,0.3737,0.1998,0.4654C34.5598,63.8175,34.4258,63.8194,34.2918,63.8213z"/>
			<path id="XMLID_144_" class="st1" d="M31.3865,65.5583c0.0831-0.0968,0.1662-0.1935,0.2494-0.2903     C31.5528,65.3646,31.4696,65.4614,31.3865,65.5583z"/>
			<path id="XMLID_143_" class="st1" d="M31.2627,65.6987c0.0253-0.0292,0.0505-0.0584,0.0759-0.0875l-0.0128,0.0717     L31.2627,65.6987z"/>
			<path id="XMLID_142_" class="st1" d="M21.1042,67.2181c0.0637,0.0344,0.1273,0.0689,0.1911,0.1033     C21.2316,67.287,21.1679,67.2525,21.1042,67.2181z"/>
			<path id="XMLID_141_" class="st2" d="M19.609,67.5531c0.0206-0.0529,0.0526-0.0645,0.0955-0.0348     c-0.0004,0.0002-0.0377,0.0515-0.0377,0.0515L19.609,67.5531z"/>
			<path id="XMLID_140_" class="st2" d="M9.8004,7.5523C9.6716,7.6804,9.5428,7.8086,9.4139,7.9368     C9.5427,7.8087,9.6716,7.6805,9.8004,7.5523z"/>
			<path id="XMLID_139_" class="st2" d="M10.2157,7.1064c-0.0429,0.0479-0.0858,0.0957-0.1288,0.1435     C10.1297,7.2019,10.1727,7.1542,10.2157,7.1064z"/>
			<path id="XMLID_138_" class="st2" d="M10.0874,7.2508c-0.0511,0.0507-0.1022,0.1013-0.1534,0.152     C9.9851,7.352,10.0362,7.3014,10.0874,7.2508z"/>
			<path id="XMLID_137_" class="st2" d="M9.42,7.9245C9.3694,7.956,9.3189,7.9875,9.2682,8.0192     C9.3187,7.9877,9.3693,7.9561,9.42,7.9245z"/>
			<path id="XMLID_136_" class="st2" d="M13.3379,69.2679c0.3954-0.0408,0.7908-0.0817,1.1859-0.1224     C14.1283,69.1864,13.7331,69.2272,13.3379,69.2679z"/>
			<path id="XMLID_135_" class="st2" d="M14.7611,69.0652c0.1431-0.0266,0.2862-0.0531,0.4288-0.0794     C15.0466,69.0124,14.9039,69.0388,14.7611,69.0652z"/>
			<path id="XMLID_134_" class="st2" d="M15.5004,68.892c0.0362-0.0031,0.0724-0.0062,0.108-0.0091     c-0.0006,0.0002-0.0525,0.0446-0.0525,0.0446L15.5004,68.892z"/>
			<polygon id="XMLID_133_" class="st2" points="16.1728,68.7313 16.1745,68.7035 16.1866,68.7271    "/>
			<path id="XMLID_128_" class="st4" d="M26.9016,32.5625c1.0242-0.9323,2.1959-0.3664,3.3641-0.5258     c-0.0461,1.0382,1.2495,1.3815,0.7437,2.5375c0.1789,0.14,0.3339,0.2612,0.5591,0.4375     c-2.4703,0.7572-4.8635,1.4907-7.1482,2.191c-0.3529,1.6628-2.672,3.1342,0.0711,4.7134     c0.2306-0.3548,0.4566-0.7026,0.7076-1.0888c0.253-0.002,0.5906-0.0047,1.0229-0.0081c-0.0906-0.3706-0.161-0.6584-0.253-1.0345     c0.152-0.1633,0.3259-0.3502,0.5256-0.5647c0.243,0.1534,0.4391,0.2772,0.6353,0.4013c0.0907,0.1788,1.134-0.9367,1.2246-0.7582     c0.0882,0.0573,0.5571-0.0624,0.6453-0.0051l0.0022,0.2755c0.2836,0.0249-0.194,0.2429,0.0897,0.2678     c0.0729,0.0056-0.0729-0.0056,0,0l0,0l0,0c0.0225-0.014,0.4529-0.4544,0.4757-0.4677c0.1381-0.0614-0.4956,0.2596-0.3575,0.1982     c0.0598-0.1213,0.2977-0.0769,0.3575-0.1982l0.0034,0.4337c0.0633-0.1242-0.0492,0.2312,0.0142,0.1071     c0.015-0.0062,0.0425-0.0117,0.0428-0.0188c0.0013-0.0296-0.0055-0.0598-0.0093-0.0897     c0.1194-0.1118,0.2388-0.2236,0.3582-0.3354c0.2771,0.2393,0.5543,0.4786,0.9766,0.8432c0.0051-0.0005,0.2551-0.027,0.448-0.0475     c0.0514,0.4962,0.0998,0.9634,0.1534,1.4817c0.449-0.0035,0.8086-0.0064,1.3385-0.0105c0.643,2.6534-0.4617,4.723-1.5893,6.7534     c-1.8014,1.4657-2.9449,0.1161-4.1938-1.1706c-1.1738-1.2094-2.4819-2.2515-4.0696-3.6698     c-0.1178,2.9504-0.0279,6.139-4.4412,3.9476c2.9391,2.299,5.0772,1.3203,7.1488,0.1223     c0.3478,0.1947,0.6155,0.3445,0.8848,0.4953c0.1251,0.3577,0.2436,0.6967,0.3921,1.1214     c-3.9247,3.3024-8.2526,2.5538-12.2939,1.3413c-1.1538,1.5953-2.0443,1.3018-2.8253,0.2158     c-0.579-0.8051-1.0154-1.7415-1.4996-2.5919c-0.1242-0.0144-0.2945-0.0341-0.4648-0.0549     C9.7995,47.32,9.6577,46.8335,9.5158,46.347c0.0526-0.3218,0.1054-0.6437,0.1763-1.0762     c-0.2855,0.0023-0.4765,0.0038-0.6675,0.0053c-0.6354,0.179-1.2708,0.358-1.8886,0.532c-1.5152-3.1608-3.43-5.8236-3.7395-9.3166     c0.2472,0.3576,0.4949,0.7142,0.884,1.2746C4.2701,36.4193,4.2609,35.2578,4.25,33.88     c-0.2025,0.0016-0.5264,0.0042-0.8504,0.0067c-0.149-0.0273-0.2981-0.0546-0.5457-0.0999     c0.2733-0.3923,0.453-0.6503,0.657-0.9432c1.1198-0.0624,2.005,0.4276,2.6858,1.4308c0.189,0.3434,0.3781,0.6867,0.6042,1.0971     c-0.3306,0.1053-0.5333,0.1698-0.4107,0.1308c-1.0228,3.025,0.2514,4.9717,2.2117,6.8282     c0.6196-3.573-1.9968-7.5098,1.0603-10.7517c0.0675-0.2827,0.1704-0.714,0.2792-1.1697     c-0.4337-0.5442-0.2517-1.0946,0.007-1.6433c0.0349-0.0655,0.0698-0.1309,0.1047-0.1964c0.0816-0.0528,0.1633-0.1056,0.244-0.158     c0.2817-0.1374,0.5642-0.2753,0.9427-0.46c-0.1119,1.3055,0.5173,1.6971,1.3477,1.8333c0.2131,0.318,0.4094,0.6108,0.5977,0.8917     c2.5964,0.5251,4.5092-0.9646,6.5202-2.4364c-0.7361,0.9053-1.4722,1.8107-2.9333,3.6077     c1.7274-1.2071,2.576-1.8001,4.0284-2.815c-0.7599,1.0476-1.0657,1.4692-1.8367,2.5322c2.0806-1.4855,3.5503-2.5348,5.02-3.5841     c0.0612,0.1121,0.1223,0.2242,0.1835,0.3363c0.6173-0.4578,1.2346-0.9156,2.0175-1.4962     c-0.251,2.2796,0.5565,4.4782-1.6331,6.8397C25.8729,33.0434,26.3873,32.8029,26.9016,32.5625z M15.3269,40.548l-0.0244,0.05     l0.0465-0.0269c0.1579,0.0492,0.3159,0.0985,0.4738,0.1477l-0.0156,0c0.0918-0.0162,0.1836-0.0323,0.2754-0.0485     c0.1513-0.1195,0.3027-0.2389,0.454-0.3584c0.2864-0.3162,0.5728-0.6325,0.8592-0.9487     c0.9818,0.0688,0.5692,1.3509,1.2369,1.9131c0.3293-0.6141,0.606-1.1301,0.8801-1.6411     c-0.2818-0.2839-0.4704-0.474-0.6484-0.6532c0.1341-0.4791,0.2584-0.923,0.4376-1.563c-1.92-1.6882-4.3522-0.5119-6.2627-1.7241     c-0.2739,0.5459-0.4299,0.8569-0.6139,1.2236c1.4762,0.6967,3.2376-0.0917,4.7997,1.3425     c-1.4995,0.2232-2.6383,0.3928-3.7772,0.5623c-0.4337,0.1744-0.8674,0.3487-1.4052,0.565     c0.8924,0.9218,1.211-0.2763,1.7689-0.3196c0.217,0.0099,0.4339,0.0198,0.6428,0.0294c0.1026,0.3261,0.1833,0.5827,0.2648,0.8411     c0.0625,0.0999,0.125,0.1997,0.1875,0.2996c0.0769,0.0588,0.1538,0.1175,0.2307,0.1763     C15.2005,40.4593,15.2637,40.5036,15.3269,40.548z M27.5177,42.6664c-0.6447-0.7416-1.3081-1.4236-2.3787-0.5344     C26.0754,42.3424,26.7965,42.5044,27.5177,42.6664z M6.4664,41.6977c0.0931-0.0746,0.1863-0.1492,0.2794-0.2238     c-0.3882-0.4736-0.7764-0.9471-1.1646-1.4207c-0.0751,0.0766-0.1502,0.1532-0.2253,0.2297     C5.7261,40.7546,6.0962,41.2261,6.4664,41.6977z"/>
			<path id="XMLID_127_" class="st3" d="M9.9486,28.7659c-0.2587,0.5486-0.4407,1.099-0.007,1.6433     c-0.1088,0.4557-0.2117,0.887-0.2792,1.1697c-3.0571,3.2419-0.4407,7.1788-1.0603,10.7517     c-1.9603-1.8566-3.2346-3.8032-2.2117-6.8282c-0.1226,0.039,0.0801-0.0255,0.4107-0.1308     c-0.226-0.4104-0.4152-0.7537-0.6042-1.0971c-0.0409-0.3081-0.0819-0.6162-0.1229-0.9243     c0.3621,0.2455,0.7242,0.491,1.3394,0.9081c0.444-2.0893,0.6803-4.4771,2.6204-5.7325     C10.0049,28.606,9.9767,28.686,9.9486,28.7659z"/>
			<path id="XMLID_126_" class="st2" d="M5.2935,18.0188c0.013-0.2303,0.026-0.4606,0.0435-0.7686     c0.2507,0.0292,0.4403,0.0512,0.6418,0.0747c0.0274,0.3112,0.0479,0.5425,0.0718,0.8139     c0.1705,0.1007,0.3488,0.2061,0.5847,0.3455c-0.2184,1.607-0.439,3.2294-0.6511,4.7903c0.3699,0.2346,0.5479,0.3475,0.737,0.4675     c-0.1995,0.1902-0.3735,0.3561-0.4989,0.4758c0.3416,0.6422,0.6412,1.2055,0.9653,1.8148     c0.1366-0.0972,0.3051-0.217,0.4839-0.3443c0.113,0.2125,0.2198,0.4134,0.2808,0.5282     c-0.1696,0.3559-0.3094,0.6491-0.4799,1.0071c-0.1579-0.0445-0.4167-0.1175-0.7809-0.2202     c0.1452,0.4882,0.2668,0.8968,0.4403,1.4799c-0.5128-0.3051-0.8281-0.4927-1.1926-0.7096     c0.0157,1.9933,0.0296,3.7496,0.0424,5.5053C5.3141,26.5027,3.9839,19.748,5.3738,12.9048     c0.1386-0.6822,0.5331-1.2972,0.8087-1.9434c0.0464,0.3359,0.0929,0.6719,0.1155,0.8349     c-1.0957,2.0327-1.5149,4.0261-0.997,6.2173c-0.0007,0.2684-0.0013,0.5368-0.002,0.8051     c-0.0257,0.4152-0.0514,0.8303-0.0018,0.0294c0.1183,0.7947,0.0573,0.3851-0.0036-0.0246     C5.2935,18.5553,5.2935,18.287,5.2935,18.0188z"/>
			<path id="XMLID_125_" class="st3" d="M3.3996,33.8867c0.324-0.0025,0.6479-0.0051,0.8504-0.0067     c0.0109,1.3778,0.02,2.5393,0.0306,3.886c-0.3891-0.5604-0.6368-0.917-0.884-1.2746     C3.2039,35.6218,2.6473,34.7519,3.3996,33.8867z"/>
			<path id="XMLID_124_" class="st3" d="M9.0247,45.276c0.191-0.0015,0.382-0.003,0.6675-0.0053     c-0.0709,0.4325-0.1237,0.7544-0.1763,1.0762C9.3522,45.9899,9.1884,45.633,9.0247,45.276z"/>
			<path id="XMLID_123_" class="st2" d="M6.7982,10.3515c-0.143,0.1132-0.286,0.2264-0.429,0.3397     C6.5122,10.578,6.6552,10.4648,6.7982,10.3515z"/>
			<path id="XMLID_122_" class="st2" d="M6.3684,10.6921c-0.0624,0.0937-0.1249,0.1874-0.1875,0.281     C6.2433,10.8794,6.3059,10.7857,6.3684,10.6921z"/>
			<path id="XMLID_121_" class="st2" d="M7.4274,9.6417C7.3488,9.7235,7.2702,9.8053,7.1916,9.8872     C7.2702,9.8055,7.3488,9.7236,7.4274,9.6417z"/>
			<path id="XMLID_120_" class="st2" d="M9.2403,67.7888c-0.0339-0.0805-0.0678-0.1611-0.1013-0.241     C9.1731,67.6285,9.2067,67.7087,9.2403,67.7888z"/>
			<path id="XMLID_119_" class="st2" d="M7.6287,9.4167C7.5834,9.4675,7.538,9.5183,7.4927,9.5693     C7.4871,9.5124,7.4813,9.4554,7.4756,9.3984C7.5267,9.4045,7.5777,9.4106,7.6287,9.4167z"/>
			<path id="XMLID_118_" class="st2" d="M7.1543,9.9575c-0.0538,0.0596-0.1077,0.1193-0.1616,0.179     C7.0465,10.0768,7.1004,10.0171,7.1543,9.9575z"/>
			<path id="XMLID_117_" class="st2" d="M8.6174,8.575C8.5066,8.6774,8.3959,8.7799,8.2851,8.8824     C8.3959,8.7799,8.5066,8.6775,8.6174,8.575z"/>
			<path id="XMLID_116_" class="st2" d="M9.0185,8.2626C8.8991,8.3562,8.7798,8.4498,8.6604,8.5434     c0.0243-0.09,0.0487-0.1799,0.0731-0.2698C8.8285,8.2699,8.9235,8.2662,9.0185,8.2626z"/>
			<path id="XMLID_115_" class="st2" d="M7.8965,9.1993C7.8074,9.2725,7.7183,9.3458,7.6291,9.4191     C7.7182,9.3459,7.8073,9.2726,7.8965,9.1993z"/>
			<path id="XMLID_114_" class="st1" d="M26.9016,32.5625c-0.5144,0.2404-1.0288,0.4809-2.3498,1.0984     c2.1896-2.3615,1.3821-4.5601,1.6331-6.8397c-0.7829,0.5806-1.4002,1.0384-2.0175,1.4962     c-0.0612-0.1121-0.1223-0.2242-0.1835-0.3363c-1.4697,1.0493-2.9394,2.0986-5.02,3.5841c0.771-1.063,1.0768-1.4846,1.8367-2.5322     c-1.4524,1.0149-2.301,1.6079-4.0284,2.815c1.4611-1.797,2.1972-2.7024,2.9333-3.6077c-2.011,1.4718-3.9238,2.9615-6.5202,2.4364     c-0.1883-0.2809-0.3846-0.5737-0.5977-0.8917c-0.8304-0.1361-1.4597-0.5278-1.3477-1.8333     c-0.3785,0.1847-0.6611,0.3226-0.9427,0.46c0.2656-0.2578,0.5303-0.5151,0.8199-0.7967c0.3907,0.6741,0.6751,1.1648,0.9802,1.691     c0.3735-0.3361,0.709-0.6378,1.323-1.1904c-0.1643,0.7355-0.2383,1.067-0.3663,1.6398c0.1604,0.1446,0.4194,0.378,0.6778,0.611     c0.1183-0.0812,0.2372-0.162,0.3562-0.2428c0.0459-0.0639,0.0917-0.1278,0.1371-0.1914c2.0253,0.586,3.5067-0.3874,4.7274-2.108     c0.0422-0.0209,0.0788-0.0506,0.1092-0.0887c0.0717-0.05,0.144-0.1003,0.2162-0.1507c0.0667-0.0508,0.1334-0.1017,0.1997-0.1523     c0.14,0.0611,0.2805,0.1219,0.436,0.1893c0.0337,0.1795,0.0648,0.3454,0.096,0.5114c-0.0623,0.0815-0.1245,0.1629-0.1863,0.2438     c-0.0212,0.0338-0.0429,0.0682-0.0646,0.1027c-0.1263,0.2637-0.2526,0.5274-0.4574,0.9548     c0.69-0.1942,1.2053-0.3393,1.8222-0.513c-0.1173,0.3484-0.1939,0.5762-0.3284,0.9758c1.4892-0.7862,2.4898-2.3317,4.4287-2.5133     c0.2937-0.4182,0.745-1.0608,1.7646-2.5125c-0.8265,2.724-0.3618,4.3804,0.0744,6.215     c-0.2144,0.2695-0.5447,0.6847-1.0585,1.3304c0.4592-0.0864,0.6595-0.1241,0.8597-0.1615     C26.8765,32.3578,26.8891,32.4602,26.9016,32.5625z"/>
			<path id="XMLID_111_" class="st2" d="M9.7433,16.6953c0.3848,0.5977,0.5484,0.8518,0.6322,0.9819     c0.3826,2.6622,1.3717,5.2729-0.5227,7.7207c-0.2701-0.4406-0.4461-0.7277-0.7081-1.1552     c-0.239,0.4852-0.4113,0.8351-0.6272,1.2733c-0.2003-0.0506-0.424-0.1071-0.4106-0.1037     C7.4739,22.1654,9.1437,19.7459,9.7433,16.6953z M10.2006,19.4767c-0.8537,1.3007-0.9968,2.4019-0.7076,3.6124     c0.3588-0.5546,0.6819-1.0541,1.1216-1.7339C10.5391,21.0124,10.4091,20.4228,10.2006,19.4767z"/>
			<path id="XMLID_108_" class="st2" d="M17.187,23.0164c0.4173,2.1221-1.2058,2.9855-1.9087,4.5622     c-0.4747-0.3662-0.8844-0.6822-1.2243-0.9444c0.0499-0.5445,0.0816-0.8908,0.1519-1.6585     c-0.275,0.5924-0.3742,0.8062-0.5135,1.1063c-0.2087-0.0693-0.4329-0.1438-0.7737-0.2569     c0.1507-0.8997,0.1098-1.8143,0.3794-2.2649c0.6693-1.1182,1.8036-1.3944,2.6459-2.0456     c0.0601,0.7039,0.1102,1.2913,0.1721,2.0157C16.4726,23.3592,16.7316,23.2349,17.187,23.0164z M16.9586,23.9674     c-0.1238-0.113-0.2476-0.226-0.3714-0.339c-0.3668,0.5642-0.7425,1.1215-1.0876,1.7023     c-0.0372,0.0627,0.1031,0.2609,0.1565,0.3856C16.1269,25.0841,16.5428,24.5257,16.9586,23.9674z"/>
			<path id="XMLID_105_" class="st2" d="M18.9527,27.824c-1.2207,1.7206-2.7022,2.6941-4.7274,2.108     c0.262-0.11,0.5236-0.2196,1.0281-0.4311c0.0952-0.099,0.3977-0.4133,1.4563-1.5135c0.3873-0.3366,0.5263-2.51,2.4569-3.1782     c-0.2595,0.7887-0.4367,1.3274-0.614,1.8661c-0.0943-0.1199-0.1886-0.2397-0.2829-0.3596c-0.2802,0.42-0.5604,0.84-0.91,1.364     c0.426,0.3599,0.6001,0.507,0.7426,0.6273C18.4346,28.1183,18.6936,27.9711,18.9527,27.824z M17.8607,28.7911     c-0.4097-0.3683-0.5898-0.5302-0.8159-0.7334c-0.1554,0.295-0.253,0.4804-0.3913,0.743     C17.0053,28.7978,17.2637,28.7958,17.8607,28.7911z"/>
			<path id="XMLID_104_" class="st2" d="M40.5551,28.8792c-0.1363,0.5717-0.2725,1.1433-0.4087,1.7147     c0.1853-1.0885,0.3706-2.1767,0.5557-3.2647c-0.0222,0.3517-0.0443,0.7031-0.0662,1.0544     C40.6091,28.5487,40.5821,28.714,40.5551,28.8792z"/>
			<path id="XMLID_103_" class="st2" d="M20.0097,28.133c-0.0311-0.1659-0.0623-0.3319-0.096-0.5114     c-0.1555-0.0674-0.2959-0.1283-0.436-0.1893c0.2063-0.297,0.4123-0.5938,1.0262-1.4784     C20.2246,27.1853,20.1172,27.6591,20.0097,28.133z"/>
			<path id="XMLID_102_" class="st2" d="M40.9936,25.0411c-0.0917,0.5945-0.1835,1.189-0.2752,1.7835     C40.8101,26.2301,40.9019,25.6356,40.9936,25.0411z"/>
			<path id="XMLID_101_" class="st2" d="M20.691,26.2743c0.2454-0.1842,0.4907-0.3685,0.7361-0.5527     c0.0475,0.0814,0.095,0.1627,0.1424,0.2441c-0.2569,0.1797-0.5138,0.3593-0.7707,0.539     C20.7629,26.4279,20.727,26.3511,20.691,26.2743z"/>
			<path id="XMLID_100_" class="st2" d="M14.0881,30.1234c-0.1189,0.0808-0.2379,0.1616-0.3562,0.2428     C13.8511,30.2856,13.9696,30.2045,14.0881,30.1234z"/>
			<path id="XMLID_99_" class="st2" d="M19.2781,27.5846c-0.0723,0.0504-0.1446,0.1007-0.2162,0.1507     C19.1343,27.6848,19.2062,27.6347,19.2781,27.5846z"/>
			<path id="XMLID_98_" class="st1" d="M9.9486,28.7659c0.0282-0.0799,0.0564-0.1598,0.0852-0.2401     c0.0007-0.0004,0.0191,0.0435,0.0191,0.0435C10.0184,28.6349,9.9835,28.7004,9.9486,28.7659z"/>
			<path id="XMLID_97_" class="st2" d="M19.7588,28.4795c0.0217-0.0344,0.0434-0.0688,0.0646-0.1027     C19.8016,28.4114,19.7802,28.4454,19.7588,28.4795z"/>
			<path id="XMLID_96_" class="st2" d="M25.7305,4.7928c-0.0141-0.0309-0.0283-0.0619-0.042-0.0931     c0.0128,0.0325,0.0251,0.0652,0.0374,0.098L25.7305,4.7928z"/>
			<path id="XMLID_93_" class="st4" d="M13.7399,53.0679c0.1011,0.253-0.112-0.2803-0.3251-0.8137     c0.1457-0.16,0.2913-0.3201,0.437-0.4801c0.1417,0.4363,0.2833,0.8725,0.4267,1.314c3.0767-3.7423,6.5819,0.5239,9.6825-1.1189     c-1.2364,1.2034-2.5754,1.6848-4.4243,0.7293c1.7543,2.5543,3.9173,1.496,5.7911,1.8855c0.33-0.819,0.652-1.6183,1.0059-2.4965     c-0.0288-0.1412-0.0755-0.37-0.1656-0.8113c0.5124-0.2903,1.0508-0.5954,1.7779-1.0073c0.0854,0.844,0.14,1.3836,0.2108,2.084     c0.1862,0.0568,0.562,0.1715,1.0397,0.3173c-0.6053,0.6026-1.1196,1.1146-1.671,1.6634     c-0.4089-0.0806-0.8134-0.1603-1.259-0.2481c-0.3831,0.5015-0.7906,1.035-1.2504,1.637     c0.0152,0.1281,0.0417,0.3513,0.0625,0.5267C20.8403,58.6778,17.1581,57.8556,13.7399,53.0679z M24.8109,55.353     c0.0059-0.0172,0.0117-0.0343,0.0176-0.0515c-0.0145-0.0051-0.0347-0.0192-0.0421-0.0132     c-0.0112,0.0091-0.0133,0.0323-0.0193,0.0495C24.7816,55.3429,24.7963,55.348,24.8109,55.353z"/>
			<path id="XMLID_92_" class="st4" d="M14.1605,55.8977c1.5205-0.2205,2.688,0.9004,3.8101,1.6542     c2.0085,1.3491,4.1795,1.3445,6.3788,1.9509c-0.0173,0.1264-0.0608,0.4453-0.0972,0.7125     c0.2085,0.4067,0.3991,0.7782,0.7134,1.3912c-0.0976-0.0483,0.0674,0.0334,0.2883,0.1427     c-0.0492,0.5998-0.0978,1.1916-0.1466,1.7863c-0.3045,0.0722-0.5433,0.1288-0.8964,0.2124     c0.1691,0.3559,0.3011,0.6338,0.4481,0.9432c-0.2223,0.1629-0.4323,0.3168-0.5217,0.3823c-0.056,0.45-0.0957,0.7692-0.157,1.2623     c-2.5523-0.3839-3.3773-3.2573-5.2901-4.39l0.0046-0.005c-0.0967-0.1114-0.1935-0.2229-0.2902-0.3343l0.0061,0.0171     c-0.266-0.3931-0.5321-0.7862-0.7981-1.1794l0.0037,0.0043c-0.5375-0.6748-1.075-1.3496-1.6125-2.0244l0.0153,0.0063     c-0.0506-0.0564-0.1012-0.1128-0.1518-0.1692l0.0055,0.0164c-0.1391-0.1681-0.2782-0.3361-0.4173-0.5042l0.0073,0.0085     c-0.4336-0.6316-0.8672-1.2633-1.3008-1.8949L14.1605,55.8977z"/>
			<path id="XMLID_91_" d="M12.9879,55.6537c-0.0926-0.1624-0.1852-0.3248-0.2764-0.485c0.0164-0.0314,0.0522-0.0791,0.0431-0.0963     c-0.2761-0.5235-0.5567-1.0439-0.8366-1.5649c-0.0655-0.1063-0.131-0.2126-0.1967-0.3193     c0.0513-0.1839,0.1029-0.3675,0.2335-0.8327c0.8123,1.3045,1.5089,2.4232,2.2055,3.542l0.0015-0.0107     c0.4336,0.6316,0.8672,1.2633,1.3008,1.8949l-0.0073-0.0085c0.1391,0.1681,0.2782,0.3362,0.4173,0.5042l-0.0055-0.0164     c0.0506,0.0564,0.1012,0.1128,0.1518,0.1692l-0.0152-0.0063c0.2138,1.0055,0.874,1.555,1.6125,2.0244l-0.0037-0.0043     c0.2661,0.3931,0.5321,0.7862,0.7981,1.1793l-0.0061-0.0169c0.0967,0.1115,0.1935,0.2229,0.2901,0.3342l-0.0046,0.005     c0.0784,0.9421,1.636,0.931,1.1323,2.2486c-0.0636-0.0625-0.1274-0.1251-0.1912-0.1877l-0.0031,0.0011     c-0.0213-0.0179-0.0419-0.0367-0.0618-0.0563c-0.0255-0.0196-0.051-0.0392-0.0766-0.0588     c-0.0406-0.0451-0.0811-0.0902-0.1212-0.1352c0.0089-0.0386,0.0175-0.0773,0.026-0.1161     c-0.0322,0.0022-0.0644,0.0044-0.0966,0.0066c-0.1312-0.1771-0.2625-0.3541-0.393-0.5304     c-0.0233-0.0322-0.0473-0.0651-0.0713-0.0981c-0.0377-0.0493-0.0753-0.0987-0.1122-0.1471     c-0.1199-0.0789-0.2405-0.1587-0.3611-0.2386c-0.0635-0.0608-0.1269-0.1216-0.1897-0.1815     c-0.0787-0.097-0.158-0.1948-0.2372-0.2926c-0.063-0.0867-0.1261-0.1734-0.1891-0.2601l0.0036,0.0027     c-0.0697-0.0831-0.1394-0.1661-0.2092-0.2491l0.0137,0.0151c-0.0679-0.0707-0.1359-0.1413-0.2037-0.2118     c0.0001,0.0002,0.0114-0.0485,0.0114-0.0485l-0.0327,0.0361c-0.0763-0.1108-0.1526-0.2216-0.229-0.3312     c0.0052-0.0502,0.0104-0.1017,0.0156-0.1531c-0.03-0.003-0.06-0.006-0.0901-0.009c-0.0721-0.0962-0.1443-0.1923-0.2159-0.2876     c-0.8059-1.0004-1.6123-2.0018-2.4187-3.0032c-0.0737-0.1053-0.1474-0.2107-0.2205-0.3147     c0.0043-0.1019,0.0227-0.2093,0.0016-0.3056c-0.0054-0.0245-0.1365-0.0138-0.2098-0.0193     c-0.043-0.0898-0.086-0.1796-0.1288-0.2694l0.0059-0.0064c-0.1596-0.1733-0.3193-0.3466-0.4782-0.5193     c-0.0046-0.0519-0.0099-0.1044-0.0152-0.1569c-0.0294,0.0107-0.0588,0.0215-0.0882,0.0322     c-0.0455-0.0998-0.0909-0.1996-0.1362-0.2994l0.0074-0.0044c-0.0452-0.0517-0.0905-0.1034-0.1357-0.1549L12.9879,55.6537z"/>
			<path id="XMLID_90_" class="st4" d="M29.0265,38.6554c-0.4315-0.1045-0.8629-0.2091-1.6197-0.3924     c2.1945-1.1807,3.9276-1.0357,6.1304,0.8349c-1.7087-0.1742-2.8129-0.2868-3.9179-0.3994     C29.4212,38.6841,29.2239,38.6697,29.0265,38.6554z"/>
			<path id="XMLID_89_" class="st4" d="M40.1062,34.3601c0.101-0.0551,0.2748-0.15,0.504-0.2751     c0.6409,1.2282,0.5759,2.398,0.1429,3.9686C40.5046,36.6349,40.3199,35.5805,40.1062,34.3601z"/>
			<path id="XMLID_88_" d="M37.1265,40.8758c-0.1508,0.2089-0.3016,0.4178-0.0061,0.0085     c-0.4357,0.1896-0.2128,0.0926,0.0102-0.0045L37.1265,40.8758z"/>
			<path id="XMLID_87_" class="st4" d="M27.9393,38.9917c-0.1404,0.1408-0.2808,0.2816-0.4215,0.4223     C27.658,39.2731,27.7987,39.1324,27.9393,38.9917z"/>
			<path id="XMLID_86_" d="M30.9872,39.5843c-0.1657-0.1048-0.3313-0.2096-0.497-0.3144c0.0311-0.0721,0.0621-0.1442,0.0932-0.2162     c0.1853,0.0833,0.3706,0.1667,0.5559,0.2501C31.0886,39.3972,31.0379,39.4907,30.9872,39.5843z"/>
			<path id="XMLID_85_" d="M20.2183,64.576c0.152-0.0471,0.304-0.0943-0.359,0.1113c0.7189-0.0057,0.5787-0.0046,0.4385-0.0034     C20.2704,64.6487,20.2439,64.6128,20.2183,64.576z"/>
			<path id="XMLID_84_" class="st1" d="M10.7802,50.8255c-0.037-0.1002-0.0739-0.2003-0.1106-0.3     C10.7067,50.6258,10.7434,50.7257,10.7802,50.8255z"/>
			<path id="XMLID_83_" d="M37.1306,40.8799c0.0126-0.0659,0.0251-0.1319,0.0024-0.0128c0.0664-0.0891,0.0299-0.0402-0.0065,0.0088     L37.1306,40.8799z"/>
			<path id="XMLID_82_" class="st1" d="M37.3597,61.2677c-0.0881,0.0406-0.1762,0.0813-0.2636,0.1212     c-0.1953,0.1602-0.3913,0.3211-0.5907,0.4792c-0.5615-1.3481,0.9024-1.7978,0.9344-2.665     c-0.1791-1.1786-0.3308-2.1764-0.514-3.3815c0.3519,0.2745,0.536,0.418,1.064,0.8298c-0.4051-0.8977-0.6309-1.3982-0.9571-2.1212     c-0.0183,0.0585,0.0494-0.1582,0.1175-0.3743c0.6526,0.8417,1.3048,1.6827,2.0877,2.6925     c-0.4818,0.2305-0.7702,0.3685-1.1558,0.553c0.0894,0.4667,0.1932,1.0083,0.3297,1.7208     c-0.0217,0.0883-0.0887,0.3605-0.1556,0.6327c-0.0728,0.0397-0.1456,0.0795-0.2185,0.1192     c-0.0229,0.0516-0.0457,0.1032-0.0686,0.1549c-0.0317,0.0408-0.0633,0.0816-0.095,0.1225     c-0.1093,0.1701-0.2186,0.3402-0.328,0.5103c-0.0307,0.1036-0.0614,0.2072-0.0921,0.3108l-0.0132,0.0213     C37.4139,61.0853,37.3868,61.1765,37.3597,61.2677z"/>
			<path id="XMLID_81_" class="st3" d="M14.3892,57.66c0.8064,1.0014,1.6128,2.0028,2.4187,3.0032     C16.0013,59.6615,15.1953,58.6608,14.3892,57.66z"/>
			<path id="XMLID_80_" class="st3" d="M11.9181,53.5075c0.2799,0.5209,0.5604,1.0414,0.8366,1.5649     c0.0091,0.0173-0.0268,0.0649-0.0431,0.0963C12.4461,54.6136,12.1821,54.0606,11.9181,53.5075z"/>
			<path id="XMLID_79_" class="st5" d="M34.4864,62.2558c-0.0591,0.2211-0.1183,0.4423-0.2653,0.9918     c-0.2215-0.4924-0.3325-0.7393-0.4435-0.9862l0.0039-0.0044c0.2337-0.0018,0.4674-0.0037,0.701-0.0056L34.4864,62.2558z"/>
			<path id="XMLID_78_" class="st3" d="M13.9605,57.0204c0.0733,0.0055,0.2044-0.0052,0.2098,0.0193     c0.0212,0.0963,0.0028,0.2037-0.0016,0.3056C14.0989,57.2362,14.0297,57.1283,13.9605,57.0204z"/>
			<path id="XMLID_77_" class="st3" d="M18.3602,62.6337c0.1206,0.0798,0.2412,0.1597,0.3611,0.2386     C18.6004,62.7922,18.4803,62.713,18.3602,62.6337z"/>
			<path id="XMLID_76_" class="st3" d="M17.9332,62.1596c0.0793,0.0978,0.1585,0.1956,0.2372,0.2926     C18.091,62.3541,18.0121,62.2569,17.9332,62.1596z"/>
			<path id="XMLID_75_" class="st3" d="M13.2561,56.1006c0.0294-0.0107,0.0588-0.0215,0.0882-0.0322     c0.0053,0.0525,0.0107,0.1051,0.0152,0.1569C13.3245,56.1834,13.2903,56.142,13.2561,56.1006z"/>
			<path id="XMLID_74_" class="st3" d="M17.0238,60.9508c0.03,0.003,0.0601,0.006,0.0901,0.009     c-0.0052,0.0514-0.0105,0.1029-0.0156,0.1531C17.0735,61.0581,17.0486,61.0044,17.0238,60.9508z"/>
			<path id="XMLID_73_" class="st5" d="M36.0921,61.7754c0.0663-0.0221,0.0392-0.0131,0.0102-0.0075     C36.1202,61.7382,36.14,61.7119,36.0921,61.7754z"/>
			<path id="XMLID_72_" class="st1" d="M30.5258,59.6855c0.033-0.0329,0.0659-0.0658,0.0986-0.0986     C30.5914,59.6199,30.5586,59.6527,30.5258,59.6855z"/>
			<path id="XMLID_71_" class="st3" d="M19.2979,63.6479c0.0322-0.0022,0.0644-0.0044,0.0966-0.0066     c-0.0085,0.0387-0.017,0.0775-0.026,0.1161C19.3447,63.7207,19.3213,63.6843,19.2979,63.6479z"/>
			<path id="XMLID_70_" class="st3" d="M29.3852,60.569c-0.0097-0.0394-0.0194-0.0788-0.0255-0.1216     c0.0379,0.0129,0.0722,0.0292,0.106,0.0462C29.4385,60.5192,29.4119,60.5441,29.3852,60.569z"/>
			<path id="XMLID_69_" class="st3" d="M18.8335,63.0194c0.024,0.0329,0.048,0.0659,0.0713,0.0981     C18.8806,63.0843,18.8571,63.0518,18.8335,63.0194z"/>
			<path id="XMLID_68_" class="st5" d="M33.8544,63.6778c-0.0568-0.0215-0.1137-0.043-0.1698-0.0639     C33.7417,63.6357,33.7981,63.6567,33.8544,63.6778z"/>
			<polygon id="XMLID_67_" class="st3" points="17.3272,61.4441 17.3599,61.408 17.3485,61.4565 17.3255,61.4732    "/>
			<path id="XMLID_66_" class="st3" d="M17.5522,61.6682l-0.0137-0.0151L17.5522,61.6682z"/>
			<path id="XMLID_65_" class="st3" d="M13.1273,55.7968l-0.0074,0.0044L13.1273,55.7968z"/>
			<path id="XMLID_64_" class="st3" d="M17.7477,61.9023l-0.0036-0.0027L17.7477,61.9023z"/>
			<path id="XMLID_63_" class="st3" d="M12.9879,55.6537l0.0037-0.0118L12.9879,55.6537z"/>
			<polygon id="XMLID_62_" class="st5" points="33.7775,62.2615 33.75,62.2257 33.7814,62.2571    "/>
			<polygon id="XMLID_61_" class="st5" points="34.4824,62.2515 34.5134,62.2197 34.4864,62.2558    "/>
			<path id="XMLID_60_" class="st3" d="M19.4897,63.8925c0.0256,0.0196,0.0511,0.0392,0.0766,0.0588l-0.0587,0.0037L19.4897,63.8925     z"/>
			<path id="XMLID_59_" class="st3" d="M19.6282,64.0076l0.0031-0.0011L19.6282,64.0076z"/>
			<polygon id="XMLID_58_" class="st5" points="31.809,64.1479 31.794,64.1715 31.7796,64.1388    "/>
			<path id="XMLID_57_" class="st3" d="M13.8376,56.7446l-0.0059,0.0064L13.8376,56.7446z"/>
			<path id="XMLID_56_" class="st1" d="M40.5551,28.8792c0.027-0.1652,0.054-0.3305,0.0808-0.4956     C40.6088,28.5488,40.5819,28.714,40.5551,28.8792z"/>
			<path id="XMLID_55_" class="st1" d="M41.493,23.3128c0.0316-0.0694,0.0632-0.1388,0.0946-0.2082     C41.5559,23.174,41.5245,23.2434,41.493,23.3128z"/>
			<path id="XMLID_54_" class="st1" d="M41.5845,23.0387c0.0005-0.0725,0.0009-0.145,0.0011-0.2175     C41.5851,22.8938,41.5848,22.9663,41.5845,23.0387z"/>
			<path id="XMLID_53_" class="st1" d="M41.5967,22.79l-0.0247-0.0531l0.0297-0.0494c0.0182,0.0301,0.0365,0.0602,0.0549,0.0903     C41.6366,22.7819,41.6167,22.7859,41.5967,22.79z"/>
			<path id="XMLID_52_" class="st4" d="M37.3597,61.2677c0.0271-0.0912,0.0541-0.1825,0.0811-0.2729     c-0.0001,0.0008,0.0306,0.0097,0.0306,0.0097l-0.0173-0.0318c0.0307-0.1036,0.0614-0.2072,0.092-0.3094     c0.1093-0.1697,0.2187-0.3407,0.328-0.5117c0.0317-0.0408,0.0633-0.0816,0.0949-0.1212     c0.0228-0.0512,0.0457-0.1036,0.0686-0.1561c0.0728-0.0397,0.1457-0.0795,0.2185-0.1192     c0.0872,0.8984,0.1744,1.7967,0.2922,3.0097C38.0544,62.1426,37.7071,61.7052,37.3597,61.2677z"/>
			<path id="XMLID_51_" class="st1" d="M40.8649,62.0584c-0.1709,0.0944-0.3418,0.1889-0.5127,0.2833     c-0.035-0.0833-0.0699-0.1665-0.1049-0.2498c0.1814-0.093,0.3628-0.1861,0.5442-0.2791     C40.816,61.8946,40.8404,61.9765,40.8649,62.0584z"/>
			<path id="XMLID_50_" class="st1" d="M39.402,62.3702c0.1008-0.0528,0.2017-0.1056-0.0243,0.0127     c0.2479-0.0316,0.1396-0.0178,0.0313-0.004L39.402,62.3702z"/>
			<path id="XMLID_49_" class="st1" d="M39.4091,62.3789c-0.0398,0.1-0.0797,0.2-0.1193,0.2999l-0.0103,0.0062     c0.041-0.1051,0.0817-0.21,0.1225-0.3149L39.4091,62.3789z"/>
			<path id="XMLID_48_" class="st3" d="M13.4478,38.8232c1.1389-0.1696,2.2777-0.3391,3.7772-0.5623     c-1.562-1.4342-3.3234-0.6457-4.7997-1.3425c0.184-0.3667,0.34-0.6776,0.6139-1.2236c1.9105,1.2123,4.3426,0.0359,6.2627,1.7241     c-0.1792,0.64-0.3035,1.0839-0.4376,1.563c0.178,0.1793,0.3666,0.3694,0.6484,0.6532c-0.274,0.511-0.5508,1.027-0.8801,1.6411     c-0.6677-0.5621-0.2551-1.8443-1.2368-1.9131c0.0736-0.0847,0.1471-0.1694,0.2607-0.3003     c-0.6076-0.1607-1.0298-0.0951-1.818-0.3035c0.2441,0.3482,0.1862,0.2656,0.3019,0.4306     c-0.225,0.0477-0.3849,0.0816-0.5448,0.1154c-0.0793-0.2841-0.2261,0.025-0.3055-0.259     c-0.1356,0.1483-0.2037-0.2965-0.3393-0.1482c0.0759,0.1658,0.1519,0.3315,0.2278,0.4973     c-0.1233,0.0273-0.5372-0.1784-0.6771-0.1475c-0.0277,0.1712,0.2399,0.5467,0.2168,0.6893     c-0.0807-0.2566-0.1614-0.5133-0.264-0.8393c-0.2089-0.0096-0.4259-0.0195-0.6431-0.0293     C13.69,38.987,13.5689,38.9051,13.4478,38.8232z"/>
			<path id="XMLID_47_" d="M15.5957,39.3055c0.1599-0.0339-2.0091-0.1892-1.7841-0.2369c-0.1157-0.1651,1.2051-0.3547,1.9594-0.4056     c1.0079-0.0079,1.2779,0.2392,1.8856,0.3999c-0.1136,0.1308-0.1871,0.2155-0.2607,0.3003     c-0.2865,0.3163-0.5729,0.6325-0.8591,0.9483c-0.1513,0.1193-0.3027,0.2391-0.4542,0.3588     c-0.0918,0.0162-0.1836,0.0323-0.2754,0.0483l0.0156,0.0002c-0.1579-0.0492-0.3159-0.0985-0.4736-0.1477l0.0124-0.0322     l-0.0347,0.0091c-0.0632-0.0443-0.1263-0.0887-0.1886-0.1325c-0.0766-0.0586-0.1541-0.1177-0.2315-0.1768     c-0.0625-0.0999-0.125-0.1997-0.1879-0.3005c0.0227-0.1435,0.0457-0.286,0.0734-0.4572c0.1399-0.031,0.2632-0.0582,0.3859-0.0859     c0.0709,0.0116,0.1425,0.0237,0.214,0.0357c0.0691-0.0455,0.1382-0.0911,0.2073-0.1366L15.5957,39.3055z"/>
			<path id="XMLID_46_" class="st3" d="M27.5177,42.6664c-0.7212-0.162-1.4423-0.324-2.3787-0.5344     C26.2095,41.2428,26.873,41.9248,27.5177,42.6664z"/>
			<path id="XMLID_45_" d="M13.4478,38.8232c0.1211,0.0819,0.2421,0.1638,0.3635,0.2455c-0.5576,0.0431-0.8762,1.2413-1.7687,0.3195     C12.5804,39.172,13.0141,38.9976,13.4478,38.8232z"/>
			<path id="XMLID_44_" class="st3" d="M6.4664,41.6977c-0.3702-0.4716-0.7403-0.9431-1.1105-1.4147     c0.0751-0.0766,0.1502-0.1532,0.2253-0.2297c0.3882,0.4736,0.7764,0.9471,1.1646,1.4207     C6.6527,41.5485,6.5595,41.6231,6.4664,41.6977z"/>
			<path id="XMLID_43_" class="st3" d="M27.6877,40.3388c0.2836,0.0249,0.5672,0.0499,0.8509,0.0748     C28.255,40.3886,27.9713,40.3637,27.6877,40.3388z"/>
			<path id="XMLID_42_" class="st3" d="M16.0825,40.6703c0.1514-0.1197,0.3029-0.2395,0.4542-0.3588     C16.3852,40.4314,16.2338,40.5509,16.0825,40.6703z"/>
			<path id="XMLID_41_" class="st3" d="M14.9067,40.2387c0.0774,0.0591,0.1549,0.1182,0.2315,0.1768     C15.0605,40.3562,14.9836,40.2974,14.9067,40.2387z"/>
			<path id="XMLID_40_" class="st3" d="M28.804,40.3882c0.1382-0.0617,0.2764-0.1233,0.4144-0.1846     C29.0802,40.2654,28.9421,40.3268,28.804,40.3882z"/>
			<polygon id="XMLID_39_" class="st3" points="15.3269,40.548 15.3615,40.5389 15.3491,40.5711 15.3024,40.5979    "/>
			<path id="XMLID_38_" class="st3" d="M29.585,39.4746c-0.0047-0.0357-0.0094-0.0714-0.0142-0.1071     c0.016-0.001,0.032-0.002,0.0478-0.0022c0.0037,0.0308,0.0105,0.0609,0.0091,0.0905C29.6275,39.4629,29.6,39.4684,29.585,39.4746     z"/>
			<path id="XMLID_37_" class="st3" d="M15.8227,40.7188l-0.0156-0.0002L15.8227,40.7188z"/>
			<path id="XMLID_36_" class="st3" d="M29.3975,39.84L29.395,39.847L29.3975,39.84z"/>
			<polygon id="XMLID_35_" class="st3" points="28.7573,40.4303 28.7361,40.4288 28.749,40.4532    "/>
			<path id="XMLID_34_" d="M5.2935,18.8236c0.061,0.4096,0.1219,0.8192,0.0036,0.0245c-0.0496,0.8009-0.0239,0.3858,0.0018-0.0294     L5.2935,18.8236z"/>
			<path id="XMLID_33_" d="M5.299,18.8187c0.0006-0.2684,0.0013-0.5367,0.002-0.8051l-0.0075,0.0053     c0.0001,0.2682,0.0001,0.5364,0.0001,0.8046L5.299,18.8187z"/>
			<path id="XMLID_32_" class="st1" d="M10.2006,19.4767c0.2085,0.9462,0.3385,1.5357,0.414,1.8785     c-0.4397,0.6798-0.7628,1.1793-1.1216,1.7339C9.2038,21.8785,9.3469,20.7774,10.2006,19.4767z"/>
			<path id="XMLID_31_" class="st1" d="M16.9586,23.9674c-0.4158,0.5583-0.8316,1.1167-1.3024,1.7489     c-0.0534-0.1247-0.1938-0.3229-0.1565-0.3856c0.3451-0.5807,0.7208-1.1381,1.0876-1.7023     C16.711,23.7414,16.8348,23.8544,16.9586,23.9674z"/>
			<path id="XMLID_30_" d="M17.8607,28.7911c-0.597,0.0047-0.8554,0.0068-1.2072,0.0095c0.1383-0.2626,0.236-0.448,0.3913-0.743     C17.2709,28.2609,17.451,28.4228,17.8607,28.7911z"/>
			<path id="XMLID_29_" class="st3" d="M24.8109,55.353c-0.0146-0.0051-0.0293-0.0101-0.0439-0.0151     c0.006-0.0172,0.0082-0.0404,0.0193-0.0495c0.0074-0.006,0.0277,0.0081,0.0421,0.0132     C24.8226,55.3187,24.8167,55.3359,24.8109,55.353z"/>
			<path id="XMLID_28_" class="st3" d="M17.6163,60.4483c-0.7385-0.4695-1.3987-1.0189-1.6125-2.0244     C16.5413,59.0987,17.0788,59.7735,17.6163,60.4483z"/>
			<path id="XMLID_27_" class="st3" d="M15.4628,57.7818c-0.4336-0.6316-0.8672-1.2633-1.3008-1.8949     C14.5955,56.5185,15.0292,57.1502,15.4628,57.7818z"/>
			<path id="XMLID_26_" class="st3" d="M18.4108,61.6234c-0.266-0.3931-0.5321-0.7862-0.7981-1.1793     C17.8787,60.8372,18.1447,61.2303,18.4108,61.6234z"/>
			<path id="XMLID_25_" class="st3" d="M15.8728,58.2775c-0.1391-0.1681-0.2782-0.3361-0.4173-0.5042     C15.5946,57.9413,15.7337,58.1094,15.8728,58.2775z"/>
			<path id="XMLID_24_" class="st3" d="M18.6949,61.9406c-0.0967-0.1113-0.1934-0.2227-0.2901-0.3342     C18.5014,61.7178,18.5981,61.8292,18.6949,61.9406z"/>
			<path id="XMLID_23_" class="st3" d="M16.0191,58.4302c-0.0506-0.0564-0.1012-0.1127-0.1518-0.1692     C15.9179,58.3175,15.9685,58.3739,16.0191,58.4302z"/>
			<path id="XMLID_22_" class="st5" d="M37.8742,60.1516c-0.1093,0.171-0.2187,0.342-0.328,0.5117     C37.6555,60.4918,37.7649,60.3217,37.8742,60.1516z"/>
			<path id="XMLID_21_" class="st5" d="M38.0377,59.8743c-0.0229,0.0524-0.0458,0.1049-0.0686,0.1561     C37.992,59.9775,38.0149,59.9259,38.0377,59.8743z"/>
			<polygon id="XMLID_20_" class="st5" points="37.4541,60.9727 37.4715,61.0045 37.4409,60.9948    "/>
		</g>
		<path id="XMLID_18_" d="M14.5281,39.0524c0,0,0.0064,0.9375,0.6101,1.3631c0.6037,0.4256,1.0037-0.8894,1.0037-0.8894    l-0.4169-0.5633L14.5281,39.0524z"/>
		<path id="XMLID_17_" d="M27.3283,39.4154c0,0,0.4843,1.2297,1.4943,0.9959c1.0101-0.2338,1.253-1.4547,1.253-1.4547    s-0.2599-0.5148-1.74-0.2508c-0.3839,0.2249,0.0688,0.507-0.2459,0.6344C27.7751,39.4676,27.3524,39.0122,27.3283,39.4154z"/>
		<path id="XMLID_16_" class="st6" d="M25.969,39.7848c0,0,0.4593,0.777,1.1697,0.9242c0,0-0.6462,0.2636-1.5963-0.1133    C24.5924,40.2188,25.969,39.7848,25.969,39.7848z"/>
		<polygon id="XMLID_15_" class="st3" points="40.7813,40.4524 40.4523,41.1483 37.2364,41.5714 35.9438,41.1266 37.166,40.3301     39.5804,39.8849   "/>
		<path id="XMLID_14_" class="st3" d="M24.0404,59.4217c0,0,0.2551,5.4684-0.4197,6.8407l0.7424,0.93l2.2667-4.8069l-0.4469-2.9807    L24.0404,59.4217z"/>
		<path id="XMLID_13_" d="M21.5072,65.7757c0,0-3.7049-5.4493-5.1673-7.1479c-1.4624-1.6985-3.8542-5.9096-4.6281-6.658    c-0.7739-0.7484-0.9316-1.1443-0.9316-1.1443s1.1341,4.0012,4.8206,8.6201C19.2873,64.0646,21.5072,65.7757,21.5072,65.7757z"/>
		<path id="XMLID_12_" class="st1" d="M34.8176,48.9322l-1.103,3.0453c0,0,0.0242,5.2674-4.3294,8.5915l-1.8687,2.7119    c0,0,6.2365-1.4219,7.2729-4.5831C35.8259,55.5365,35.785,52.6673,34.8176,48.9322z"/>
		<path id="XMLID_11_" class="st4" d="M33.8544,63.6778c0,0,2.0179-9.4996,1.6198-12.5012c0,0,5.3256,5.185,4.878,11.1651    l-0.2682,0.2904l-0.6999,0.5506C39.3841,63.1827,36.1165,64.2088,33.8544,63.6778z"/>
	</g>
	<linearGradient id="SVGID_1_" gradientUnits="userSpaceOnUse" x1="47.6813" y1="91.1986" x2="29.1523" y2="54.8333">
		<stop offset="0" style="stop-color:#1E8DC9"/>
		<stop offset="1" style="stop-color:#575EA6"/>
	</linearGradient>
	<path class="st7" d="M62.0694,67.4474c-0.2972-0.2899-0.6476-0.5117-1.0269-0.6597l-0.0607-4.8963   c0.4999-0.147,0.9583-0.4205,1.3286-0.8001c0.5676-0.5819,0.8809-1.3654,0.8708-2.1783l-0.0285-2.2953   c-0.021-1.6796-1.389-3.0269-3.0641-3.0269c-0.0129,0-4.0753,0.0503-4.0753,0.0503c-0.5194,0.0064-1.0235,0.1445-1.4681,0.3953   c-0.5541-0.2327-1.1582-0.3545-1.7952-0.3545l-0.0611,0.0004c-0.7027,0.0087-1.3907,0.2084-2.1969,0.6498   c-0.5133-0.3611-1.1268-0.5609-1.7617-0.5609c-0.0127,0-3.8781,0.0478-3.8781,0.0478c-0.6289,0.0077-1.2355,0.2086-1.7406,0.5685   c-0.1685-0.0171-0.3388-0.0257-0.5106-0.0257l-0.063,0.0004c-0.597,0.0074-1.4818,0.1523-2.3627,0.784   c-0.6047-0.4213-1.2773-0.7332-2.0058-0.9299c-0.3982-0.1891-0.8416-0.298-1.3108-0.298c-0.0129,0-5.3419,0.066-5.3419,0.066   c-0.8127,0.01-1.5883,0.3426-2.156,0.9246c-0.5676,0.5819-0.8809,1.3654-0.8708,2.1783l0.016,1.279   c-1.0061,1.5469-1.5038,3.2216-1.482,4.9929c0.0158,1.2685,0.2256,2.4795,0.6169,3.6171   c-2.2359,0.0277-3.6286,0.0449-3.6286,0.0449c-0.2769,0.0035-0.5493,0.0444-0.811,0.1197   c-0.2483-0.065-0.5088-0.0997-0.7773-0.0997c-0.0129,0-11.9695,0.1481-11.9695,0.1481c-1.6926,0.0211-3.0477,1.4101-3.0267,3.1029   l0.0312,2.5162c0.01,0.8127,0.3426,1.5883,0.9245,2.156c0.3047,0.2972,0.6646,0.5247,1.0551,0.6724   c-0.0489,0.2243-0.073,0.4558-0.0701,0.6916l0.0587,4.7386c0.0131,1.0597,0.5637,1.9872,1.3897,2.5276   c0.0323,0.3065,0.1107,0.6075,0.2337,0.8926l0.8935,2.0716c0.3838,0.8902,1.1663,1.5462,2.1097,1.7691   c0.2334,0.0551,0.4696,0.082,0.7045,0.082c0.7139,0,1.4139-0.2497,1.9718-0.7184l0.2274-0.0028   c0.9201-0.0116,1.7864-0.4359,2.3595-1.1559c0.0523-0.0657,0.0984-0.1351,0.1447-0.2043l0.1417,0.0314   c0.2197,0.0488,0.4419,0.0725,0.6629,0.0725c0.6974,0,1.3818-0.2384,1.9334-0.6867c0.0991-0.0806,0.1924-0.1669,0.2798-0.2579   c0.3032,0.1889,0.6432,0.3271,1.0096,0.4016l2.1098,0.4294c0.203,0.0414,0.4078,0.0616,0.6113,0.0616   c0.7069,0,1.3994-0.2447,1.9538-0.7034c0.2477-0.2051,0.4588-0.4453,0.6282-0.7101c1.332,1.0036,2.7194,1.2062,3.6212,1.2062   l0.0803-0.0005c1.8181-0.0225,3.4157-0.9622,4.4987-2.646c0.1144-0.1778,0.2086-0.3645,0.2826-0.5565   c0.5866,0.2123,1.1988,0.3215,1.8198,0.3215l0.0664-0.0004c0.6073-0.0074,1.1383-0.1776,1.6263-0.446   c0.1312,1.3876,1.1909,2.5264,2.59,2.7394l2.1084,0.321c0.1539,0.0234,0.3079,0.0349,0.4613,0.0349   c0.7344,0,1.4503-0.2641,2.0119-0.7527c0.5805-0.5051,0.9462-1.2068,1.033-1.9621c0.6383,0.308,1.3374,0.5173,2.0841,0.6208   c0.1405,0.0195,0.281,0.029,0.4212,0.029c0.6101,0,1.2073-0.1824,1.7135-0.5238c0.1454,0.4699,0.4032,0.9024,0.7571,1.2575   c0.5754,0.5772,1.3566,0.9011,2.1707,0.9011c0.0127,0,2.0554-0.0252,2.0554-0.0252c1.6926-0.021,3.0478-1.4101,3.0268-3.1027   l-0.0916-7.391c1.1256-0.4648,1.9114-1.58,1.8954-2.872l-0.0312-2.5162C62.9837,68.7907,62.6513,68.0151,62.0694,67.4474z"/>
	<g id="XMLID_1_">
		<path id="XMLID_6_" class="st8" d="M46.4362,69.8086L35.764,69.9409l-1.4972,0.0186l-5.748,0.0712l-1.5187,0.0188l-2.9499,0.0366    l0.028,2.256c-0.4873-0.8343-1.0371-1.4327-1.6493-1.796l-0.0055-0.4399l-11.9309,0.1479l0.0312,2.5163l7.5707-0.0938    l0.0108,0.8694l-5.6721,2.7443l0.0587,4.7385c1.3306-0.0016,2.3444,0.1018,3.0413,0.3104    c0.8417,0.2506,1.7378,0.7755,2.6881,1.5752l2.045,0.453l-0.1328-10.7162l0.7591-0.0094    c0.9191,0.1188,1.6669,0.5255,2.2437,1.2197c0.5768,0.6946,0.8709,1.5045,0.8824,2.4299l0.0817,6.5945l2.1098,0.4295    l-0.1331-10.7378l0.9543-0.0118l1.5187-0.0188l1.4966-0.0185c-1.1107,1.4054-1.6569,2.8542-1.6384,4.3466    c0.018,1.4493,0.3307,2.7787,0.939,3.9885c0.7564,1.5127,1.7925,2.2606,3.1086,2.2443c0.7809-0.0097,1.4338-0.4229,1.9589-1.2393    l-1.8096-2.4726l-0.3658,0.2432c-0.2596,0.0612-0.4328,0.0921-0.5195,0.0932c-0.6365,0.0079-1.1328-0.3704-1.4894-1.1348    c-0.2824-0.6057-0.4279-1.2639-0.4367-1.975c-0.0144-1.1602,0.4362-2.1452,1.3519-2.9545    c0.8724-0.7796,1.9018-1.1769,3.0877-1.1916l0.0647-0.0008l1.4972-0.0185l2.4509-0.0304l-1.0445,1.4944    c0.5532,0.2982,1.0205,0.6626,1.402,1.0935l1.016,1.4472c-0.6114,0.8645-1.2714,1.3009-1.9797,1.3097    c-0.2603,0.0032-0.6961-0.1432-1.3072-0.4394l0.0143,1.1497c0.6592,0.6719,1.0617,1.0645,1.2078,1.1783    c0.4963,0.3844,1.0194,0.5732,1.5691,0.5664c0.1735-0.0022,0.5783-0.3072,1.2145-0.9154    c0.6359-0.6079,1.1131-0.9142,1.4314-0.9181c0.5494-0.0068,1.2306,0.6865,2.0434,2.0792l0.0258,2.0825l2.1085,0.321    L45.8168,72.333l0.6506-0.0081l1.4752-0.0183l8.0695-0.1l0.0306,2.473c-0.0909-0.3314-0.2825-0.6148-0.5746-0.8499    c-0.2925-0.235-0.6047-0.3505-0.9373-0.3463c-0.5497,0.0068-1.0166,0.2513-1.4012,0.7333    c-0.1275,0.2185-0.2625,0.4301-0.4043,0.6342c-0.8071-0.9301-1.536-1.3912-2.1867-1.3831    c-1.4896,0.0185-2.2192,1.2425-2.1891,3.672c0.012,0.9691,0.3005,1.7899,0.8658,2.4626c0.5649,0.673,1.326,1.0758,2.2822,1.2084    l-0.0398-3.2105c-0.9555-0.0749-1.4364-0.3582-1.4425-0.8499c-0.0077-0.6216,0.2921-0.9366,0.8995-0.9441    c0.448-0.0056,1.1332,0.4056,2.0547,1.2329c0.484-0.6135,0.979-0.9233,1.4854-0.9296c1.1715-0.0145,1.7489,1.0631,1.7324,3.2329    l-0.0484,3.1031l2.0174-0.025l-0.1269-10.2389l1.9306-0.0239l-0.0312-2.5163l-12.0176,0.149L46.4362,69.8086z M18.2012,81.2885    c-0.9866-1.4051-2.185-2.3883-3.5947-2.9495l3.5315-2.1483L18.2012,81.2885z M43.782,77.9558    c-0.9463-1.6514-1.7304-2.4736-2.352-2.4659c-0.2314,0.0029-0.49,0.1508-0.7756,0.4435c-0.1374-0.5804-0.2654-0.9791-0.3837-1.196    c-0.2079-0.4191-0.522-0.6773-0.9425-0.7741l1.2607-1.5656l3.1237-0.0387L43.782,77.9558z"/>
		<path id="XMLID_5_" class="st8" d="M14.8756,82.5447c-0.6365,0.0079-0.9732,0.2507-1.0107,0.7285l0.8934,2.0717    c0.5583-0.47,1.1194-0.7081,1.6835-0.7151l0.4772-0.0059c-0.169-0.779-0.356-1.2974-0.5617-1.5552    C16.0781,82.7109,15.584,82.536,14.8756,82.5447z"/>
		<path id="XMLID_4_" class="st8" d="M33.7811,68.9949c0.7123-0.0088,1.3078-0.3857,1.7869-1.1304l-1.6706-2.2552l-0.3337,0.2218    c-0.2368,0.0558-0.3948,0.084-0.4739,0.085c-0.5936,0.0074-1.0466-0.3377-1.3586-1.0352    c-0.244-0.5264-0.3702-1.1269-0.3785-1.8018c-0.0103-0.8336,0.2379-1.5578,0.7449-2.1729    c0.5476-0.5226,1.0952-1.0523,1.6427-1.5885l3.1463-0.039l-0.0284-2.2954l-5.3032,0.0657l0.0284,2.2954    c-1.0137,1.2396-1.5119,2.5653-1.4944,3.9767c0.0163,1.3193,0.3017,2.5295,0.8564,3.6309    C31.6354,68.3288,32.5805,69.0098,33.7811,68.9949z"/>
		<path id="XMLID_3_" class="st8" d="M38.608,60.4052c0.5507,0.2572,0.8632,0.6161,0.9375,1.0769    c-0.9528,0.4605-1.5241,0.7709-1.7137,0.9316c-0.5562,0.4423-0.8296,1.0131-0.8209,1.7122    c0.007,0.5673,0.1637,1.0667,0.4704,1.4982c0.3484,0.5102,0.8034,0.7619,1.3649,0.7549c0.4107-0.0051,0.9258-0.4203,1.5455-1.2462    c0.5456,0.9302,1.0853,1.3917,1.6192,1.3851c0.5063-0.0063,0.9145-0.2222,1.2243-0.6485c0.283-0.3727,0.4213-0.8098,0.4151-1.3113    c-0.0077-0.6199-0.2103-1.221-0.6077-1.8033c-0.3975-0.582-0.8854-1.0148-1.4641-1.2979c0.0503-0.3436,0.2209-0.6589,0.512-0.9464    c0.2908-0.2872,0.6141-0.4331,0.9702-0.4375c1.3143-0.0163,1.9947,1.8489,2.0411,5.5953    c0.0047,0.3828-0.0036,0.8248-0.0247,1.3263c-0.0316,0.7657-0.0461,1.2607-0.0433,1.4849l1.9358,0.4114l-0.1207-9.7356    l1.9098-0.0237l-0.0284-2.2954l-3.8402,0.0476l0.0316,2.5526l-0.1643,0.002c-0.0612-0.5138-0.3067-0.979-0.7361-1.3961    c-0.4297-0.4167-0.9114-0.622-1.4454-0.6154c-0.575,0.0071-1.0757,0.4951-1.5017,1.4633c-0.3066,0.69-0.5099,1.4115-0.6099,2.1648    c-0.4542-1.274-0.8828-2.1661-1.286-2.6756c-0.64-0.81-1.5014-1.2545-2.5839-1.3335l0.0375,3.0275l0.4929-0.0061    C37.6589,60.0607,38.1532,60.1734,38.608,60.4052z"/>
		<path id="XMLID_2_" class="st8" d="M56.0513,56.7058l0.1236,9.9731c-0.4578-0.7331-0.9463-1.3075-1.4661-1.7234    c-0.1198-0.0907-0.7451-0.492-1.8753-1.2038c1.2873-1.5331,1.924-2.8539,1.9102-3.962c-0.0092-0.7386-0.1626-1.3963-0.4599-1.9734    c-0.3651-0.7209-0.8841-1.0775-1.5569-1.0692c-0.277,0.0034-0.7295,0.2169-1.3576,0.6402    c-0.628,0.4234-1.1073,0.6371-1.4368,0.6412c-0.2245,0.0028-0.5343,0.0066-0.9301,0.0115l0.8252,2.7011l0.3561-0.0044    c0.5807,0.0194,1.207-0.5425,1.8791-1.6857c0.649,0.2177,0.9782,0.6849,0.9871,1.4016c0.0074,0.5973-0.3944,1.1865-1.2052,1.7674    c-0.6016,0.4323-1.2703,0.7727-2.006,1.0205c0.3073,1.3902,0.5702,2.3626,0.7882,2.9174    c2.4583,0.3412,4.3076,1.0484,5.5479,2.1215l1.8252,0.3559l-0.1197-9.6565l2.236-0.0277l-0.0285-2.2954L56.0513,56.7058z"/>
	</g>
</g>
</svg>